<svg width="20" height="13" viewBox="0 0 20 13" fill="none" xmlns="http://www.w3.org/2000/svg">
<path d="M0.0378977 6.30891C-0.0126013 6.43092 -0.0126013 6.5689 0.0378977 6.69091C0.0633989 6.75239 0.10039 6.80793 0.146403 6.8544L6.14609 12.8534C6.34158 13.0489 6.65763 13.0489 6.85312 12.8534C7.04861 12.6579 7.04861 12.3419 6.85312 12.1464L1.70647 6.99994L19.5 6.99994C19.776 6.99994 20 6.77643 20 6.49996C20 6.22349 19.776 5.99998 19.5 5.99998L1.70643 5.99998L6.85307 0.853543C7.04857 0.658057 7.04857 0.342024 6.85307 0.146538C6.75555 0.0490215 6.62754 3.69779e-05 6.49958 3.69667e-05C6.37157 3.69555e-05 6.24356 0.0490215 6.14609 0.146538L0.146403 6.14598C0.10039 6.19194 0.063399 6.24743 0.0378977 6.30891Z" fill="#8E6B5E" fill-opacity="0.5"/>
</svg>
