<svg width="20" height="13" viewBox="0 0 20 13" fill="none" xmlns="http://www.w3.org/2000/svg">
<path d="M19.9621 6.69109C20.0126 6.56908 20.0126 6.4311 19.9621 6.30909C19.9366 6.2476 19.8996 6.19207 19.8536 6.1456L13.8539 0.146615C13.6584 -0.0488715 13.3424 -0.0488715 13.1469 0.146615C12.9514 0.342101 12.9514 0.658134 13.1469 0.85362L18.2935 6.00006H0.499999C0.223969 6.00006 0 6.22357 0 6.50004C0 6.77651 0.224019 7.00002 0.499999 7.00002H18.2936L13.1469 12.1465C12.9514 12.3419 12.9514 12.658 13.1469 12.8535C13.2444 12.951 13.3725 13 13.5004 13C13.6284 13 13.7564 12.951 13.8539 12.8535L19.8536 6.85402C19.8996 6.80806 19.9366 6.75257 19.9621 6.69109Z" fill="white"/>
</svg>
