<svg width="20" height="13" viewBox="0 0 20 13" fill="none" xmlns="http://www.w3.org/2000/svg">
<g clip-path="url(#clip0)">
<path d="M0.037897 6.3094C-0.0126019 6.43141 -0.0126019 6.56939 0.037897 6.6914C0.0633984 6.75288 0.10039 6.80842 0.146403 6.85489L6.14609 12.8539C6.34158 13.0494 6.65763 13.0494 6.85312 12.8539C7.04861 12.6584 7.04861 12.3424 6.85312 12.1469L1.70647 7.00043L19.5 7.00043C19.776 7.00043 20 6.77692 20 6.50045C20 6.22398 19.776 6.00047 19.5 6.00047L1.70642 6.00047L6.85307 0.854032C7.04856 0.658546 7.04856 0.342513 6.85307 0.147027C6.75555 0.0495107 6.62754 0.000525953 6.49958 0.000525953C6.37157 0.000525953 6.24356 0.0495107 6.14609 0.147027L0.146403 6.14647C0.10039 6.19243 0.0633984 6.24792 0.037897 6.3094Z" fill="white"/>
</g>
<defs>
<clipPath id="clip0">
<rect width="20" height="13" fill="white" transform="translate(20 13) rotate(-180)"/>
</clipPath>
</defs>
</svg>
