<svg width="20" height="13" viewBox="0 0 20 13" fill="none" xmlns="http://www.w3.org/2000/svg">
<g clip-path="url(#clip0)">
<path d="M19.9621 6.6906C20.0126 6.56859 20.0126 6.43061 19.9621 6.3086C19.9366 6.24712 19.8996 6.19158 19.8536 6.14511L13.8539 0.146126C13.6584 -0.0493598 13.3424 -0.0493598 13.1469 0.146126C12.9514 0.341612 12.9514 0.657646 13.1469 0.853132L18.2935 5.99957H0.499999C0.223969 5.99957 0 6.22308 0 6.49955C0 6.77602 0.224019 6.99953 0.499999 6.99953H18.2936L13.1469 12.146C12.9514 12.3415 12.9514 12.6575 13.1469 12.853C13.2444 12.9505 13.3725 12.9995 13.5004 12.9995C13.6284 12.9995 13.7564 12.9505 13.8539 12.853L19.8536 6.85353C19.8996 6.80757 19.9366 6.75208 19.9621 6.6906Z" fill="white"/>
</g>
<defs>
<clipPath id="clip0">
<rect width="20" height="13" fill="white"/>
</clipPath>
</defs>
</svg>
