<svg width="22" height="22" viewBox="0 0 22 22" fill="none" xmlns="http://www.w3.org/2000/svg">
<g clip-path="url(#clip0)">
<path d="M9.9485 11.0799L0.21075 20.8177C-0.0597813 21.0882 -0.0597813 21.5265 0.21075 21.797C0.345844 21.9325 0.523219 21.9998 0.70025 21.9998C0.877625 21.9998 1.05466 21.9325 1.18975 21.797L11.0007 11.9861L20.8117 21.797C20.9471 21.9325 21.1242 21.9998 21.3012 21.9998C21.4782 21.9998 21.6556 21.9325 21.7907 21.797C22.0612 21.5265 22.0612 21.0882 21.7907 20.8177L12.0533 11.0799L21.7972 1.3353C22.0678 1.06477 22.0678 0.626492 21.7972 0.355961C21.5267 0.0857734 21.0884 0.0857734 20.8182 0.355961L11.0011 10.1738L1.18288 0.356305C0.912344 0.0861172 0.474406 0.0861172 0.203875 0.356305C-0.0666563 0.626836 -0.0666563 1.06512 0.203875 1.33565L9.9485 11.0799Z" fill="white"/>
</g>
<defs>
<clipPath id="clip0">
<rect width="22" height="22" fill="white" transform="matrix(1 0 0 -1 0 22)"/>
</clipPath>
</defs>
</svg>
