<svg width="20" height="21" viewBox="0 0 20 21" fill="none" xmlns="http://www.w3.org/2000/svg">
<path d="M16.0764 18.6652C15.9824 18.6652 15.8893 18.6322 15.8147 18.5686L11.761 15.1122H2.7802C1.24718 15.1121 0 13.8507 0 12.3002V4.27445C0 2.72396 1.24718 1.46255 2.7802 1.46255H17.2198C18.7528 1.46255 20 2.724 20 4.27445V12.3002C20 13.8507 18.7528 15.1121 17.2198 15.1121H16.4822V18.2547C16.4822 18.4145 16.3907 18.5597 16.2474 18.6269C16.1928 18.6526 16.1344 18.6652 16.0764 18.6652ZM2.7802 2.28362C1.69482 2.28362 0.811796 3.17669 0.811796 4.27445V12.3002C0.811796 13.398 1.69482 14.2911 2.7802 14.2911H11.9093C12.005 14.2911 12.0977 14.3253 12.1709 14.3877L15.6704 17.3717V14.7016C15.6704 14.4749 15.8522 14.2911 16.0763 14.2911H17.2198C18.3052 14.2911 19.1882 13.398 19.1882 12.3002V4.27445C19.1882 3.17669 18.3052 2.28362 17.2198 2.28362H2.7802Z" fill="#8E6B5E"/>
<path d="M16.5375 6.05993H3.46252C3.23835 6.05993 3.05664 5.87609 3.05664 5.64939C3.05664 5.42266 3.23835 5.23886 3.46252 5.23886H16.5374C16.7616 5.23886 16.9433 5.42266 16.9433 5.64939C16.9433 5.87609 16.7616 6.05993 16.5375 6.05993Z" fill="#8E6B5E"/>
<path d="M16.5375 8.68874H3.46252C3.23835 8.68874 3.05664 8.5049 3.05664 8.27821C3.05664 8.05147 3.23835 7.86768 3.46252 7.86768H16.5374C16.7616 7.86768 16.9433 8.05147 16.9433 8.27821C16.9433 8.5049 16.7616 8.68874 16.5375 8.68874Z" fill="#8E6B5E"/>
<path d="M16.5375 11.3176H3.46252C3.23835 11.3176 3.05664 11.1338 3.05664 10.9071C3.05664 10.6803 3.23835 10.4965 3.46252 10.4965H16.5374C16.7616 10.4965 16.9433 10.6803 16.9433 10.9071C16.9433 11.1338 16.7616 11.3176 16.5375 11.3176Z" fill="#8E6B5E"/>
</svg>
