<svg width="10" height="5" viewBox="0 0 10 5" fill="none" xmlns="http://www.w3.org/2000/svg">
<path d="M4.39316 4.97357C4.47812 5.01 4.57421 5.01 4.65916 4.97357C4.70164 4.955 4.74063 4.92857 4.77266 4.89571L8.94992 0.61C9.0857 0.47 9.0857 0.244286 8.94992 0.105C8.81414 -0.035 8.5934 -0.035 8.45762 0.105L4.87433 3.78143L4.52616 4.10786L0.594707 0.105714C0.458924 -0.0342857 0.238189 -0.0342857 0.102406 0.105714C0.0341654 0.175 4.57764e-05 0.266429 4.57764e-05 0.357857C4.57764e-05 0.449286 0.0341654 0.540714 0.101709 0.610714L4.27897 4.89643C4.31169 4.92857 4.34999 4.955 4.39316 4.97357Z" fill="#8E6B5E"/>
</svg>
