<svg width="10" height="5" viewBox="0 0 10 5" fill="none" xmlns="http://www.w3.org/2000/svg">
<path d="M4.65859 0.0274057C4.57364 -0.00902271 4.47755 -0.00902271 4.3926 0.0274057C4.35012 0.0459776 4.31113 0.0724058 4.2791 0.105263L0.101838 4.39098C-0.0339459 4.53098 -0.0339459 4.75669 0.101838 4.89598C0.237621 5.03598 0.458356 5.03598 0.59414 4.89598L4.17743 1.21955L4.52559 0.89312L8.45705 4.89526C8.59283 5.03526 8.81357 5.03526 8.94935 4.89526C9.01759 4.82598 9.05171 4.73455 9.05171 4.64312C9.05171 4.55169 9.01759 4.46026 8.95005 4.39026L4.77279 0.104548C4.74006 0.0724058 4.70177 0.0459776 4.65859 0.0274057Z" fill="#8E6B5E"/>
</svg>
