<svg width="204" height="170" viewBox="0 0 204 170" fill="none" xmlns="http://www.w3.org/2000/svg">
<g clip-path="url(#clip0)">
<path d="M68.8796 165.084H68.8017C68.7151 164.223 68.6198 163.311 68.5159 162.26C67.4682 151.929 65.52 132.696 63.2255 116.631L62.9658 114.771C61.3639 103.579 60.2123 95.4605 57.7706 91.7413C57.183 90.9256 56.3382 90.3284 55.3703 90.0446C54.4025 89.7607 53.367 89.8064 52.4282 90.1744C50.5406 90.9751 49.6315 92.2062 48.3154 97.5268C45.3455 109.58 39.6568 153.952 38.3753 165.076H38.0896C37.7451 165.076 37.4147 165.212 37.1712 165.454C36.9276 165.696 36.7908 166.025 36.7908 166.367V168.502C36.7908 168.845 36.9276 169.173 37.1712 169.415C37.4147 169.657 37.7451 169.794 38.0896 169.794H43.6138C43.9582 169.794 44.2886 169.657 44.5321 169.415C44.7757 169.173 44.9125 168.845 44.9125 168.502V166.367C44.9146 166.051 44.7991 165.745 44.5881 165.508C44.3772 165.271 44.0857 165.12 43.7696 165.084C43.9341 163.629 44.1679 161.95 44.445 159.962C44.6788 158.24 44.9558 156.208 45.2502 153.866H62.1259C62.5501 157.095 62.8359 160.53 63.0697 163.337C63.1216 163.931 63.1649 164.507 63.2082 165.058C62.8828 165.086 62.5797 165.234 62.3586 165.473C62.1374 165.712 62.0143 166.025 62.0133 166.35V168.502C62.0133 168.845 62.1501 169.173 62.3937 169.415C62.6373 169.657 62.9676 169.794 63.3121 169.794H68.8536C69.1981 169.794 69.5284 169.657 69.772 169.415C70.0156 169.173 70.1524 168.845 70.1524 168.502V166.35C70.1458 166.016 70.0095 165.698 69.7722 165.462C69.535 165.226 69.2151 165.091 68.8796 165.084V165.084ZM55.9609 148.916L45.8477 148.864C47.6746 132.903 50.6359 112.869 52.6793 100.953C53.3547 97.0102 53.9088 95.6844 54.1426 95.2711C54.6404 96.4203 54.9811 97.6307 55.1557 98.8698C55.8397 102.314 56.6536 107.72 57.7533 115.856C59.0174 125.387 60.1344 136.071 60.8704 143.139C61.1301 145.601 61.3379 147.59 61.4938 148.942L55.9609 148.916Z" fill="#C0987B"/>
<path d="M77.9291 76.3305C78.6274 75.2481 79.0368 74.0066 79.1186 72.7232C79.2004 71.4398 78.9519 70.1568 78.3966 68.9954C76.8727 65.8358 73.8768 65.0179 70.9762 64.751C70.9762 64.2258 70.9762 63.5543 70.9762 62.8655C70.9762 62.0046 70.9762 61.1437 70.9762 60.4549H71.0454C71.2751 60.4549 71.4953 60.3642 71.6577 60.2028C71.8201 60.0413 71.9113 59.8223 71.9113 59.594V58.3026C71.9113 58.0743 71.8201 57.8553 71.6577 57.6938C71.4953 57.5324 71.2751 57.4417 71.0454 57.4417H67.9197C67.69 57.4417 67.4698 57.5324 67.3074 57.6938C67.145 57.8553 67.0538 58.0743 67.0538 58.3026V59.594C67.0538 59.8223 67.145 60.0413 67.3074 60.2028C67.4698 60.3642 67.69 60.4549 67.9197 60.4549C67.9197 62.0993 67.9197 65.1814 67.9197 69.6583C67.9197 73.4378 67.9197 75.504 67.9803 76.6663H67.8937C67.6641 76.6663 67.4438 76.757 67.2814 76.9185C67.1191 77.0799 67.0278 77.2989 67.0278 77.5272V78.7498C67.0278 78.9781 67.1191 79.1971 67.2814 79.3585C67.4438 79.52 67.6641 79.6107 67.8937 79.6107H69.3224H70.3527H70.9762C73.6863 79.6796 76.6129 78.2935 77.9291 76.3305ZM70.9502 67.7987C72.3673 67.8657 73.7286 68.368 74.8466 69.2364C75.2888 69.6862 75.623 70.2296 75.8239 70.826C76.0248 71.4224 76.0874 72.0563 76.0068 72.6802C75.9405 73.3582 75.7097 74.0102 75.3341 74.58C74.9586 75.1499 74.4496 75.6206 73.8508 75.9517C72.9682 76.45 71.9647 76.6972 70.9502 76.6663V67.7987Z" fill="#C0987B"/>
<path d="M86.552 59.594V58.3026C86.552 58.0743 86.4608 57.8553 86.2984 57.6938C86.136 57.5324 85.9158 57.4417 85.6862 57.4417H82.5691C82.3394 57.4417 82.1192 57.5324 81.9568 57.6938C81.7944 57.8553 81.7032 58.0743 81.7032 58.3026V59.594C81.7032 59.8223 81.7944 60.0413 81.9568 60.2028C82.1192 60.3642 82.3394 60.4549 82.5691 60.4549C82.5691 62.3318 82.5691 66.7225 82.5691 76.6835H82.5258C82.2961 76.6835 82.0759 76.7742 81.9135 76.9357C81.7511 77.0971 81.6599 77.3161 81.6599 77.5445V78.8703C81.6599 79.0986 81.7511 79.3176 81.9135 79.4791C82.0759 79.6405 82.2961 79.7312 82.5258 79.7312H85.6429C85.8725 79.7312 86.0927 79.6405 86.2551 79.4791C86.4175 79.3176 86.5087 79.0986 86.5087 78.8703V77.5703C86.5087 77.3419 86.4175 77.123 86.2551 76.9615C86.0927 76.8001 85.8725 76.7093 85.6429 76.7093H85.5563C85.5563 68.5907 85.5563 62.9344 85.5563 60.4807H85.6429C85.7624 60.4868 85.8819 60.4681 85.9937 60.4259C86.1056 60.3836 86.2075 60.3188 86.2929 60.2355C86.3784 60.1522 86.4455 60.0522 86.4901 59.9417C86.5347 59.8313 86.5558 59.7129 86.552 59.594Z" fill="#C0987B"/>
<path d="M42.4422 60.4548H42.7106V76.7264C42.481 76.7264 42.2607 76.8171 42.0983 76.9786C41.936 77.14 41.8447 77.359 41.8447 77.5873V78.8701C41.8447 79.0985 41.936 79.3175 42.0983 79.4789C42.2607 79.6404 42.481 79.7311 42.7106 79.7311H45.8277C46.0573 79.7311 46.2776 79.6404 46.44 79.4789C46.6023 79.3175 46.6936 79.0985 46.6936 78.8701V77.5787C46.6936 77.3504 46.6023 77.1314 46.44 76.97C46.2776 76.8085 46.0573 76.7178 45.8277 76.7178V64.4753L47.8192 68.8403C49.1613 71.733 50.4168 74.4191 50.6592 74.9701C50.9016 75.5211 51.5251 76.9072 52.9537 76.9416C53.0775 76.9549 53.2023 76.9549 53.3261 76.9416H53.4213C54.2169 76.5611 54.8364 75.8929 55.153 75.0734C55.3868 74.5396 56.6336 71.8621 57.9671 68.9866L59.9845 64.6217V76.7867C59.7549 76.7867 59.5347 76.8774 59.3723 77.0388C59.2099 77.2003 59.1187 77.4193 59.1187 77.6476V78.8701C59.1187 79.0985 59.2099 79.3175 59.3723 79.4789C59.5347 79.6404 59.7549 79.7311 59.9845 79.7311H63.1103C63.3399 79.7311 63.5602 79.6404 63.7225 79.4789C63.8849 79.3175 63.9761 79.0985 63.9761 78.8701V77.5787C63.9761 77.3504 63.8849 77.1314 63.7225 76.97C63.5602 76.8085 63.3399 76.7178 63.1103 76.7178V60.4548H63.3268C63.5564 60.4548 63.7766 60.3641 63.939 60.2026C64.1014 60.0411 64.1926 59.8222 64.1926 59.5938V58.3024C64.1921 58.1885 64.1689 58.0758 64.1243 57.9709C64.0797 57.866 64.0147 57.7709 63.9329 57.6912C63.8516 57.6088 63.7546 57.5435 63.6475 57.4991C63.5404 57.4547 63.4254 57.4322 63.3094 57.4329H60.8071C59.9412 57.562 59.3611 58.5004 58.6598 60.0932C58.2441 61.1005 54.6681 68.8747 52.9018 72.6972C51.248 69.1502 47.5075 61.023 47.0919 60.0329C46.1481 57.8547 45.3601 57.5104 44.8666 57.4501H44.2172C43.8708 57.4501 43.4119 57.4501 42.8405 57.4501H42.4682C42.2385 57.4501 42.0183 57.5408 41.8559 57.7023C41.6935 57.8637 41.6023 58.0827 41.6023 58.311V59.6024C41.6044 59.8249 41.6931 60.0378 41.8496 60.1967C42.0062 60.3556 42.2186 60.4481 42.4422 60.4548Z" fill="#C0987B"/>
<path d="M99.7711 90.0112H94.5759C94.2315 90.0112 93.9011 90.1473 93.6576 90.3895C93.414 90.6317 93.2772 90.9601 93.2772 91.3026V93.4463C93.2772 93.7888 93.414 94.1173 93.6576 94.3595C93.9011 94.6017 94.2315 94.7377 94.5759 94.7377H94.6279V139.747H78.8433C78.8433 124.913 78.8433 100.807 78.8433 94.7377H78.9039C79.2483 94.7377 79.5787 94.6017 79.8223 94.3595C80.0658 94.1173 80.2027 93.7888 80.2027 93.4463V91.3026C80.2027 90.9601 80.0658 90.6317 79.8223 90.3895C79.5787 90.1473 79.2483 90.0112 78.9039 90.0112H73.7087C73.3642 90.0112 73.0339 90.1473 72.7903 90.3895C72.5467 90.6317 72.4099 90.9601 72.4099 91.3026V93.4463C72.4099 93.7888 72.5467 94.1173 72.7903 94.3595C73.0339 94.6017 73.3642 94.7377 73.7087 94.7377H73.7953V165.042H73.7347C73.3902 165.042 73.0599 165.178 72.8163 165.42C72.5727 165.662 72.4359 165.99 72.4359 166.333V168.485C72.4359 168.828 72.5727 169.156 72.8163 169.398C73.0599 169.641 73.3902 169.777 73.7347 169.777H78.9298C79.2743 169.777 79.6047 169.641 79.8482 169.398C80.0918 169.156 80.2286 168.828 80.2286 168.485V166.333C80.2286 165.99 80.0918 165.662 79.8482 165.42C79.6047 165.178 79.2743 165.042 78.9298 165.042H78.8692V144.784H94.6625V165.042H94.5759C94.2315 165.042 93.9011 165.178 93.6576 165.42C93.414 165.662 93.2772 165.99 93.2772 166.333V168.485C93.2772 168.828 93.414 169.156 93.6576 169.398C93.9011 169.641 94.2315 169.777 94.5759 169.777H99.7711C100.116 169.777 100.446 169.641 100.689 169.398C100.933 169.156 101.07 168.828 101.07 168.485V166.333C101.07 165.99 100.933 165.662 100.689 165.42C100.446 165.178 100.116 165.042 99.7711 165.042V165.042V155.571C99.7711 139.291 99.7711 109.382 99.7711 94.7033C100.116 94.7033 100.446 94.5673 100.689 94.3251C100.933 94.0829 101.07 93.7544 101.07 93.4119V91.2682C101.061 90.9317 100.92 90.612 100.677 90.3772C100.435 90.1424 100.11 90.0111 99.7711 90.0112V90.0112Z" fill="#C0987B"/>
<path d="M130.581 90.0112H125.386C125.041 90.0112 124.711 90.1473 124.467 90.3895C124.224 90.6316 124.087 90.9601 124.087 91.3026V93.4463C124.087 93.7888 124.224 94.1173 124.467 94.3595C124.711 94.6017 125.041 94.7377 125.386 94.7377H125.446V131.646H109.636V94.7377H109.696C110.041 94.7377 110.371 94.6017 110.615 94.3595C110.858 94.1173 110.995 93.7888 110.995 93.4463V91.3026C110.995 90.9601 110.858 90.6316 110.615 90.3895C110.371 90.1473 110.041 90.0112 109.696 90.0112H104.501C104.157 90.0112 103.826 90.1473 103.583 90.3895C103.339 90.6316 103.202 90.9601 103.202 91.3026V93.4463C103.202 93.7888 103.339 94.1173 103.583 94.3595C103.826 94.6017 104.157 94.7377 104.501 94.7377H104.553V165.042H104.501C104.157 165.042 103.826 165.178 103.583 165.42C103.339 165.662 103.202 165.99 103.202 166.333V168.485C103.202 168.828 103.339 169.156 103.583 169.398C103.826 169.641 104.157 169.777 104.501 169.777H109.696C110.041 169.777 110.371 169.641 110.615 169.398C110.858 169.156 110.995 168.828 110.995 168.485V166.333C110.995 165.99 110.858 165.662 110.615 165.42C110.371 165.178 110.041 165.042 109.696 165.042H109.636V136.691H125.455V165.042H125.394C125.05 165.042 124.72 165.178 124.476 165.42C124.232 165.662 124.096 165.99 124.096 166.333V168.485C124.096 168.828 124.232 169.156 124.476 169.398C124.72 169.641 125.05 169.777 125.394 169.777H130.59C130.934 169.777 131.264 169.641 131.508 169.398C131.752 169.156 131.888 168.828 131.888 168.485V166.333C131.888 165.99 131.752 165.662 131.508 165.42C131.264 165.178 130.934 165.042 130.59 165.042H130.529V94.7377H130.581C130.925 94.7377 131.256 94.6017 131.499 94.3595C131.743 94.1173 131.88 93.7888 131.88 93.4463V91.3026C131.88 90.9601 131.743 90.6316 131.499 90.3895C131.256 90.1473 130.925 90.0112 130.581 90.0112Z" fill="#C0987B"/>
<path d="M169.354 165.291H169.042V94.7633H169.241C169.586 94.7633 169.916 94.6273 170.16 94.3851C170.403 94.1429 170.54 93.8144 170.54 93.4719V91.3368C170.54 90.9943 170.403 90.6658 170.16 90.4237C169.916 90.1815 169.586 90.0454 169.241 90.0454H163.717C163.373 90.0454 163.042 90.1815 162.799 90.4237C162.555 90.6658 162.418 90.9943 162.418 91.3368V93.5064C162.418 93.8489 162.555 94.1773 162.799 94.4195C163.042 94.6617 163.373 94.7978 163.717 94.7978H163.968V165.325H163.847C163.502 165.325 163.172 165.462 162.928 165.704C162.685 165.946 162.548 166.274 162.548 166.617V168.743C162.548 169.086 162.685 169.414 162.928 169.657C163.172 169.899 163.502 170.035 163.847 170.035H169.371C169.716 170.035 170.046 169.899 170.289 169.657C170.533 169.414 170.67 169.086 170.67 168.743V166.617C170.675 166.443 170.644 166.27 170.58 166.108C170.515 165.946 170.419 165.799 170.296 165.675C170.173 165.551 170.026 165.453 169.864 165.387C169.702 165.321 169.529 165.289 169.354 165.291V165.291Z" fill="#C0987B"/>
<path d="M140.555 122.184V94.7464H140.798C141.142 94.7464 141.472 94.6103 141.716 94.3681C141.96 94.1259 142.096 93.7975 142.096 93.455V91.3026C142.096 90.9601 141.96 90.6317 141.716 90.3895C141.472 90.1473 141.142 90.0112 140.798 90.0112H135.273C134.929 90.0112 134.599 90.1473 134.355 90.3895C134.111 90.6317 133.975 90.9601 133.975 91.3026V93.455C133.973 93.6241 134.006 93.7919 134.07 93.9485C134.135 94.1051 134.23 94.2476 134.349 94.3676C134.469 94.4876 134.612 94.5829 134.769 94.6479C134.926 94.7129 135.095 94.7464 135.265 94.7464H135.49V165.102H135.421C135.078 165.106 134.752 165.244 134.51 165.486C134.269 165.727 134.133 166.053 134.13 166.393V168.408C134.13 168.75 134.267 169.079 134.511 169.321C134.754 169.563 135.085 169.699 135.429 169.699H140.243C142.936 169.579 149.768 168.709 154.885 163.285C158.185 159.64 160.148 154.991 160.453 150.096C160.903 144.672 160.15 136.975 157.855 132.748C154.418 126.79 148.461 123.149 140.555 122.184ZM140.555 127.161C143.399 127.441 146.126 128.426 148.486 130.027C152.461 132.662 156.011 136.054 155.777 148.055C155.673 153.221 154.045 157.397 150.833 160.418C147.998 163.018 144.392 164.634 140.555 165.024V127.161Z" fill="#C0987B"/>
<path d="M34.66 167.865C33.6774 165.59 32.1059 163.614 30.1055 162.14L30.1575 156.656C30.2354 154.211 30.3133 151.49 30.2701 149.949C30.1921 145.352 30.2094 126.833 30.2701 111.956C30.2701 104.431 30.2701 97.7849 30.2701 94.6683H31.2485C31.5928 94.668 31.9229 94.5318 32.1663 94.2895C32.2887 94.1693 32.3856 94.0257 32.4511 93.8675C32.5165 93.7092 32.5492 93.5394 32.5473 93.3683V91.2676C32.5427 90.9273 32.4042 90.6024 32.1613 90.3625C31.9185 90.1227 31.5907 89.9871 31.2485 89.9849H10.9267C10.583 89.9871 10.2539 90.1239 10.0108 90.3656C9.76776 90.6073 9.63019 90.9345 9.62792 91.2763V93.3769C9.62792 93.7194 9.76476 94.0479 10.0083 94.2901C10.2519 94.5323 10.5823 94.6683 10.9267 94.6683H12.3208C12.4247 105.74 12.1216 118.938 11.5675 127.22L11.4722 128.77C11.0133 136.028 10.0609 151.06 4.80508 159.944C2.12091 161.795 0.761505 163.974 -0.00911147 167.615C-0.0480047 167.801 -0.0448771 167.993 4.44426e-05 168.178C0.044966 168.363 0.130563 168.535 0.250649 168.683C0.36925 168.831 0.519054 168.952 0.689565 169.037C0.860076 169.122 1.04717 169.168 1.23773 169.174L3.73141 169.217C4.02112 169.217 4.30251 169.12 4.53025 168.942C4.758 168.764 4.91885 168.515 4.98691 168.235C5.21628 167.389 5.55998 166.578 6.00862 165.825C7.45461 163.655 10.286 162.639 14.4248 162.803C18.5636 162.966 24.3562 163.767 27.6638 166.66C28.3511 167.259 28.9359 167.966 29.3955 168.752C29.5341 168.967 29.6553 169.156 29.7765 169.32C29.896 169.485 30.0534 169.62 30.2356 169.713C30.4177 169.805 30.6195 169.854 30.8242 169.854H33.517C33.7337 169.855 33.9472 169.802 34.1379 169.7C34.3285 169.598 34.4902 169.449 34.608 169.268C34.7239 169.085 34.7925 168.875 34.8076 168.659C34.8227 168.443 34.7839 168.226 34.6946 168.029L34.66 167.865ZM15.308 157.766C14.9963 157.766 14.6066 157.766 14.1477 157.766C13.3944 157.766 12.4853 157.766 11.5501 157.878C15.7149 148.115 16.4249 131.594 16.7453 125.068C17.3168 112.008 17.464 100.239 17.5073 94.72H25.1182L25.0662 159.6C21.9205 158.572 18.6499 157.97 15.3426 157.809L15.308 157.766Z" fill="#C0987B"/>
<path d="M4.91641 52.8101H7.40143C7.69231 52.8099 7.97461 52.7121 8.20251 52.5323C8.43042 52.3526 8.59055 52.1016 8.65693 51.82C8.86532 50.9575 9.18854 50.1266 9.61803 49.3491C10.9168 47.412 12.6918 46.155 17.177 46.3358C21.3937 46.4908 27.1084 47.3001 30.4247 50.1928C31.1114 50.793 31.6962 51.4994 32.1564 52.2849C32.2863 52.4915 32.4075 52.6809 32.5287 52.8531C32.6501 53.0158 32.8081 53.1479 32.99 53.2391C33.1719 53.3303 33.3727 53.3779 33.5764 53.3783H36.2692C36.486 53.3767 36.6989 53.3215 36.8889 53.2177C37.0789 53.114 37.2399 52.9649 37.3576 52.7839C37.4752 52.6029 37.5458 52.3956 37.5628 52.1808C37.5799 51.9659 37.543 51.7502 37.4555 51.5531L37.3949 51.4154C36.4043 49.1449 34.8307 47.1734 32.8318 45.6988L32.8924 40.206C32.9703 37.7695 33.0482 35.0404 32.9963 33.4993C32.927 28.9708 32.9443 21.0416 32.9963 14.0508C32.9963 10.5124 32.9963 7.29249 32.9963 5.07128H33.966C34.31 5.06911 34.6395 4.93314 34.8839 4.69247C35.1264 4.4463 35.2631 4.1159 35.2648 3.77127V1.67059C35.2492 1.33864 35.1055 1.02544 34.8636 0.796145C34.6217 0.566845 34.3003 0.439092 33.966 0.439454V0.439454H13.8521C13.5076 0.439454 13.1773 0.575511 12.9337 0.817695C12.6901 1.05988 12.5533 1.38835 12.5533 1.73085V3.83153C12.5533 4.17403 12.6901 4.50251 12.9337 4.74469C13.1773 4.98688 13.5076 5.12293 13.8521 5.12293H15.1162C15.1769 12.0104 15.1162 20.3615 13.9993 26.6979C12.7265 34.3086 10.8302 40.1285 8.50973 43.5722C5.79958 45.4319 4.43152 47.61 3.66957 51.269C3.6276 51.4542 3.6284 51.6465 3.67189 51.8314C3.71538 52.0163 3.80043 52.189 3.92067 52.3366C4.04226 52.4825 4.19428 52.6004 4.3662 52.6821C4.53812 52.7639 4.72585 52.8075 4.91641 52.8101V52.8101ZM18.0948 41.3769H17.0211C16.415 41.3769 15.8176 41.4027 15.2288 41.4543C16.8725 37.1713 18.0679 32.7313 18.7962 28.2046C19.8092 22.2727 20.1382 10.9256 20.2421 5.16598H27.8617L27.8098 43.202C24.6668 42.1762 21.399 41.5768 18.0948 41.4199V41.3769Z" fill="#C0987B"/>
<path d="M137.645 75.3489H137.411C137.066 75.3525 136.736 75.4917 136.493 75.7364C136.371 75.8566 136.274 76.0001 136.208 76.1584C136.143 76.3167 136.11 76.4864 136.112 76.6576V78.8185C136.112 79.161 136.249 79.4895 136.493 79.7317C136.736 79.9738 137.067 80.1099 137.411 80.1099H142.935C143.28 80.1099 143.61 79.9738 143.854 79.7317C144.097 79.4895 144.234 79.161 144.234 78.8185V76.6403C144.234 76.2978 144.097 75.9694 143.854 75.7272C143.61 75.485 143.28 75.3489 142.935 75.3489H142.762C142.762 64.0879 142.762 55.1773 142.849 47.2825C142.918 32.8188 142.978 21.3942 142.753 4.19275C142.753 3.04771 142.701 0 138.493 0H121.003C117.262 0 116.778 2.25565 116.778 4.21858C116.778 16.6505 116.778 66.6793 116.778 75.3662H116.596C116.251 75.3662 115.921 75.5022 115.677 75.7444C115.434 75.9866 115.297 76.3151 115.297 76.6576V78.8185C115.297 79.161 115.434 79.4895 115.677 79.7317C115.921 79.9738 116.251 80.1099 116.596 80.1099H122.12C122.464 80.1099 122.795 79.9738 123.038 79.7317C123.282 79.4895 123.419 79.161 123.419 78.8185V76.6576C123.419 76.3151 123.282 75.9866 123.038 75.7444C122.795 75.5022 122.464 75.3662 122.12 75.3662H121.843V5.14838H137.697L137.645 75.3489Z" fill="#C0987B"/>
<path d="M149.991 4.92469H151.117V75.3663H150.589C150.246 75.3686 149.918 75.5056 149.676 75.7476C149.434 75.9895 149.299 76.3167 149.299 76.6577V78.8186C149.299 79.1611 149.436 79.4896 149.679 79.7318C149.923 79.974 150.253 80.11 150.598 80.11H156.814C157.159 80.11 157.489 79.974 157.733 79.7318C157.976 79.4896 158.113 79.1611 158.113 78.8186V76.6577C158.113 76.3152 157.976 75.9867 157.733 75.7445C157.489 75.5023 157.159 75.3663 156.814 75.3663H156.347V47.8767C163.802 46.9555 169.404 43.2707 173.023 36.917C175.396 32.7759 176.617 26.646 176.21 20.9208C175.952 16.0331 174.149 11.3511 171.058 7.54193C169.24 5.19208 166.889 3.30275 164.197 2.02802C161.505 0.753283 158.548 0.129239 155.568 0.206773H155.187C154.673 0.176193 154.159 0.176193 153.645 0.206773H149.991C149.819 0.205787 149.649 0.238764 149.49 0.303792C149.331 0.368819 149.186 0.464601 149.065 0.585583C148.944 0.704644 148.848 0.846944 148.784 1.00383C148.72 1.16071 148.689 1.32891 148.693 1.49817V3.67633C148.704 4.01132 148.846 4.32884 149.088 4.56179C149.33 4.79474 149.654 4.92488 149.991 4.92469V4.92469ZM156.347 4.84721C158.466 4.90632 160.542 5.45767 162.408 6.45715C164.133 7.28201 165.666 8.45479 166.91 9.90089C169.537 13.1179 171.114 17.0557 171.43 21.1877C171.674 25.9439 170.627 30.6777 168.4 34.8938V34.8938C167.292 36.9202 165.734 38.6691 163.845 40.0077C161.621 41.5885 159.056 42.632 156.356 43.0554L156.347 4.84721Z" fill="#C0987B"/>
<path d="M179.172 4.98455H180.194V75.3745H179.25C178.906 75.3745 178.576 75.5106 178.332 75.7527C178.088 75.9949 177.952 76.3234 177.952 76.6659V78.8182C177.952 79.1607 178.088 79.4892 178.332 79.7314C178.576 79.9736 178.906 80.1096 179.25 80.1096H198.81C198.911 80.1228 199.013 80.1228 199.113 80.1096H201.642C201.986 80.1096 202.316 79.9736 202.56 79.7314C202.803 79.4892 202.94 79.1607 202.94 78.8182V70.7685C202.94 70.426 202.803 70.0975 202.56 69.8554C202.316 69.6132 201.986 69.4771 201.642 69.4771H199.113C198.769 69.4771 198.438 69.6132 198.195 69.8554C197.951 70.0975 197.814 70.426 197.814 70.7685V75.4262L185.381 75.3401V38.208H194.368C194.713 38.208 195.043 38.0719 195.287 37.8297C195.53 37.5876 195.667 37.2591 195.667 36.9166V34.6782C195.665 34.3335 195.529 34.0031 195.286 33.757C195.168 33.6325 195.024 33.5349 194.864 33.471C194.704 33.4071 194.532 33.3784 194.36 33.3868L185.381 33.4556V5.04481H189.589C192.394 5.04481 195.754 5.04481 197.814 5.04481V9.03955C197.815 9.28799 197.887 9.53112 198.022 9.74015C198.157 9.94919 198.349 10.1154 198.576 10.219C198.795 10.3686 199.055 10.4468 199.321 10.4429H201.676C202.021 10.4429 202.351 10.3068 202.595 10.0646C202.838 9.82244 202.975 9.49397 202.975 9.15146V1.48915C202.975 1.14665 202.838 0.818183 202.595 0.575999C202.351 0.333814 202.021 0.197754 201.676 0.197754H179.164C178.819 0.197754 178.489 0.333814 178.245 0.575999C178.002 0.818183 177.865 1.14665 177.865 1.48915V3.69315C177.865 3.86346 177.899 4.0321 177.965 4.18934C178.03 4.34658 178.127 4.48933 178.248 4.60936C178.37 4.72939 178.514 4.82434 178.673 4.88873C178.831 4.95312 179.001 4.98568 179.172 4.98455V4.98455Z" fill="#C0987B"/>
<path d="M42.4102 53.042C42.5544 53.1607 42.7225 53.2475 42.9032 53.2965C43.0838 53.3455 43.273 53.3556 43.4579 53.3261C50.2116 52.2069 53.346 47.9797 54.2725 38.6902C54.6102 35.3067 54.5409 26.4736 54.4976 21.196C54.4976 19.9993 54.4976 19.0351 54.4976 18.4152C54.3802 15.6294 54.8798 12.852 55.9609 10.2794C56.7933 8.71489 58.0385 7.40534 59.5629 6.49128C61.3812 5.33763 65.6239 4.90716 66.7322 4.95882H66.8708H67.5894V48.7373C67.2898 48.7918 67.019 48.9493 66.8243 49.1822C66.6297 49.4151 66.5235 49.7087 66.5244 50.0115V52.181C66.5244 52.5235 66.6612 52.852 66.9048 53.0942C67.1484 53.3364 67.4787 53.4724 67.8232 53.4724H72.4209C72.7654 53.4724 73.0957 53.3364 73.3393 53.0942C73.5829 52.852 73.7197 52.5235 73.7197 52.181V50.0804C73.721 49.7787 73.6161 49.4862 73.4231 49.2535C73.2302 49.0207 72.9614 48.8625 72.6634 48.8062C72.6634 38.871 72.6634 30.4339 72.6634 23.7444V5.06213H73.408C73.7518 5.05906 74.0809 4.92322 74.3258 4.68332C74.5695 4.44137 74.7065 4.11312 74.7068 3.77073V1.70449C74.7045 1.36268 74.567 1.03552 74.3239 0.793824C74.0808 0.552126 73.7518 0.415342 73.408 0.413086H65.6153C65.5071 0.414112 65.3995 0.428573 65.2949 0.456132C61.9895 0.519544 58.7532 1.40766 55.883 3.03893L55.7011 3.10781C53.8612 4.45839 52.3761 6.23038 51.3718 8.27341C49.9657 11.4688 49.3027 14.9384 49.4323 18.4238C49.4323 18.9834 49.4323 20.2662 49.5016 21.8676C49.5968 26.1034 49.77 33.1974 49.5882 36.1505C49.0167 45.6207 46.2026 47.2307 42.8604 48.2552C42.5694 48.333 42.3152 48.5103 42.1426 48.7559C41.97 49.0015 41.89 49.2998 41.9166 49.5982V52.0777C41.9233 52.2645 41.9709 52.4476 42.0562 52.6141C42.1414 52.7807 42.2622 52.9267 42.4102 53.042Z" fill="#C0987B"/>
<path d="M201.944 165.145H201.468C200.42 150.75 198.377 138.731 191.943 124.319C191.441 123.2 190.948 122.115 190.454 121.057C191.562 118.646 192.688 116.373 193.779 114.169C197.13 107.385 200.022 101.453 201.269 94.7636H201.797C202.141 94.7636 202.472 94.6275 202.715 94.3853C202.959 94.1432 203.096 93.8147 203.096 93.4722V91.3199C203.096 90.9774 202.959 90.6489 202.715 90.4067C202.472 90.1645 202.141 90.0285 201.797 90.0285H196.602C196.257 90.0285 195.927 90.1645 195.683 90.4067C195.44 90.6489 195.303 90.9774 195.303 91.3199V93.4722C195.303 93.8147 195.44 94.1432 195.683 94.3853C195.927 94.6275 196.257 94.7636 196.602 94.7636H196.879C195.909 100.007 192.939 106.042 189.545 112.929L188.09 115.977C187.588 114.944 187.086 113.919 186.584 112.912C183.19 106.025 180.22 99.9981 179.25 94.7464H179.432C179.776 94.7464 180.106 94.6103 180.35 94.3681C180.594 94.1259 180.73 93.7975 180.73 93.455V91.3026C180.73 90.9601 180.594 90.6317 180.35 90.3895C180.106 90.1473 179.776 90.0112 179.432 90.0112H174.237C173.892 90.0112 173.562 90.1473 173.318 90.3895C173.075 90.6317 172.938 90.9601 172.938 91.3026V93.455C172.938 93.7975 173.075 94.1259 173.318 94.3681C173.562 94.6103 173.892 94.7464 174.237 94.7464H174.851C176.098 101.436 178.99 107.368 182.332 114.152C183.432 116.373 184.549 118.646 185.666 121.039C185.172 122.098 184.679 123.183 184.177 124.302C177.761 138.749 175.726 150.785 174.652 165.222H174.237C173.892 165.222 173.562 165.358 173.318 165.601C173.075 165.843 172.938 166.171 172.938 166.514V168.675C172.938 169.017 173.075 169.346 173.318 169.588C173.562 169.83 173.892 169.966 174.237 169.966H179.432C179.776 169.966 180.106 169.83 180.35 169.588C180.594 169.346 180.73 169.017 180.73 168.675V166.514C180.73 166.171 180.594 165.843 180.35 165.601C180.106 165.358 179.776 165.222 179.432 165.222H179.284C180.187 151.983 183.157 138.965 188.09 126.635C193.024 138.938 195.997 151.931 196.905 165.145H196.749C196.404 165.145 196.074 165.281 195.83 165.523C195.587 165.765 195.45 166.094 195.45 166.436V168.597C195.45 168.94 195.587 169.268 195.83 169.51C196.074 169.753 196.404 169.889 196.749 169.889H201.944C202.289 169.889 202.619 169.753 202.862 169.51C203.106 169.268 203.243 168.94 203.243 168.597V166.436C203.243 166.094 203.106 165.765 202.862 165.523C202.619 165.281 202.289 165.145 201.944 165.145V165.145Z" fill="#C0987B"/>
<path d="M37.8307 78.5861C37.8307 77.5013 37.8307 69.2622 37.8826 68.1429V68.0741C37.8826 64.3204 37.8826 60.7734 35.7959 58.7932C34.6443 57.6998 33.0165 57.2177 30.8259 57.321C28.8769 57.4695 26.9573 57.8807 25.1199 58.5436C24.9541 58.6051 24.8113 58.7157 24.7107 58.8604C24.6101 59.0051 24.5565 59.1769 24.557 59.3528V61.0747C24.5563 61.2127 24.5889 61.3489 24.6522 61.4718C24.7155 61.5947 24.8076 61.7006 24.9207 61.7807C25.0325 61.8592 25.1613 61.9103 25.2968 61.9298C25.4323 61.9492 25.5704 61.9365 25.7 61.8926L26.4706 61.6171C27.8733 61.0386 29.3689 60.715 30.8865 60.6614C31.3367 60.6008 31.7946 60.6338 32.2313 60.7583C32.668 60.8828 33.074 61.0961 33.4235 61.3846C34.0635 62.186 34.4169 63.1766 34.4279 64.1999H34.0296C33.4408 64.1999 32.7654 64.1999 31.7697 64.1999C28.514 64.1482 25.9424 64.9661 24.3233 66.5502C23.6102 67.2906 23.0572 68.1683 22.6983 69.1292C22.3394 70.0902 22.1823 71.114 22.2365 72.1377C22.2077 73.2128 22.4351 74.2795 22.9001 75.2506C23.3651 76.2217 24.0545 77.0696 24.912 77.7251C26.4563 78.8879 28.3434 79.5113 30.2804 79.4987C30.9074 79.5032 31.5327 79.4309 32.142 79.2834C32.9642 79.0934 33.7506 78.7737 34.4712 78.3364C34.4712 78.4311 34.4712 78.5344 34.4712 78.6205C34.4693 78.7353 34.4906 78.8492 34.5337 78.9557C34.5769 79.0621 34.641 79.1589 34.7223 79.2404C34.8005 79.3242 34.8958 79.3905 35.0018 79.435C35.1078 79.4796 35.222 79.5012 35.337 79.4987C35.8998 79.4987 36.5839 79.4987 37.0081 79.4987C37.1226 79.4932 37.2349 79.4651 37.3385 79.4161C37.442 79.3672 37.5347 79.2982 37.6112 79.2133C37.6878 79.1284 37.7466 79.0293 37.7842 78.9216C37.8219 78.8139 37.8377 78.6999 37.8307 78.5861V78.5861ZM27.1027 74.7291C26.7025 74.3888 26.3756 73.9715 26.1418 73.5023C25.908 73.0331 25.7721 72.5218 25.7421 71.999C25.7122 71.4762 25.7889 70.9529 25.9677 70.4603C26.1464 69.9678 26.4235 69.5163 26.7823 69.133C28.1722 67.9985 29.9514 67.4458 31.7437 67.592H34.5231V68.0569C34.5188 68.0854 34.5188 68.1144 34.5231 68.1429C34.5231 69.4257 34.5231 71.7675 34.5231 74.0489C33.7154 74.9195 32.657 75.5208 31.4926 75.7708C30.7282 75.9078 29.9435 75.8859 29.188 75.7066C28.4325 75.5274 27.7225 75.1945 27.1027 74.7291V74.7291Z" fill="#C0987B"/>
<path d="M12.3221 60.739C13.6642 60.739 14.963 61.7119 15.8894 63.4165C15.9642 63.5524 16.0744 63.6657 16.2085 63.7445C16.3426 63.8233 16.4956 63.8646 16.6514 63.8642H18.5649C18.709 63.8649 18.851 63.8298 18.978 63.7622C19.105 63.6945 19.213 63.5964 19.2923 63.4768C19.3791 63.3521 19.4312 63.2068 19.4433 63.0556C19.4555 62.9044 19.4273 62.7527 19.3615 62.6158C17.8809 59.3099 15.2487 57.3469 12.3221 57.3469C7.6118 57.3469 4.06177 62.0562 4.06177 68.3066C4.06177 74.557 7.6118 79.3696 12.3221 79.3696C15.24 79.3696 17.8723 77.3722 19.3615 74.0232C19.4273 73.8864 19.4555 73.7347 19.4433 73.5835C19.4312 73.4323 19.3791 73.287 19.2923 73.1623C19.214 73.041 19.1065 72.9412 18.9794 72.8721C18.8523 72.8029 18.7098 72.7665 18.5649 72.7663H16.6514C16.4947 72.7667 16.3412 72.8093 16.207 72.8897C16.0728 72.97 15.963 73.0851 15.8894 73.2225C14.963 74.9444 13.6642 75.9001 12.3221 75.9001C9.62925 75.9001 7.51655 72.5424 7.51655 68.2636C7.51655 63.9847 9.63791 60.739 12.3221 60.739Z" fill="#C0987B"/>
<path d="M105.444 78.8701V77.5701C105.444 77.3418 105.353 77.1228 105.19 76.9613C105.028 76.7999 104.808 76.7092 104.578 76.7092H104.492C103.623 73.2429 101.828 70.0746 99.2965 67.5402C102.829 64.0018 104.05 61.617 104.492 60.4806H104.587C104.817 60.4806 105.037 60.3898 105.199 60.2284C105.362 60.0669 105.453 59.848 105.453 59.6196V58.3282C105.453 58.0999 105.362 57.8809 105.199 57.7194C105.037 57.558 104.817 57.4673 104.587 57.4673H101.461C101.231 57.4673 101.011 57.558 100.849 57.7194C100.686 57.8809 100.595 58.0999 100.595 58.3282V59.6196C100.596 59.7819 100.642 59.9407 100.73 60.0778C100.817 60.2149 100.941 60.3247 101.089 60.3945C100.12 62.3303 98.812 64.0794 97.2271 65.5601C95.6399 64.0773 94.3269 62.3289 93.348 60.3945C93.4776 60.3201 93.5856 60.2136 93.6615 60.0853C93.7374 59.9571 93.7785 59.8114 93.781 59.6627V58.3713C93.781 58.1429 93.6897 57.924 93.5273 57.7625C93.365 57.601 93.1447 57.5103 92.9151 57.5103H89.798C89.5683 57.5103 89.3481 57.601 89.1857 57.7625C89.0234 57.924 88.9321 58.1429 88.9321 58.3713V59.6627C88.9321 59.891 89.0234 60.11 89.1857 60.2714C89.3481 60.4329 89.5683 60.5236 89.798 60.5236H89.9712C90.3781 61.66 91.599 64.0448 95.1663 67.5833C92.6345 70.1177 90.8394 73.2859 89.9712 76.7522H89.8067C89.577 76.7522 89.3568 76.8429 89.1944 77.0044C89.032 77.1658 88.9408 77.3848 88.9408 77.6131V78.8701C88.9408 79.0984 89.032 79.3174 89.1944 79.4789C89.3568 79.6403 89.577 79.731 89.8067 79.731H92.9237C93.1534 79.731 93.3736 79.6403 93.536 79.4789C93.6984 79.3174 93.7896 79.0984 93.7896 78.8701V77.5701C93.7884 77.3957 93.734 77.2257 93.6335 77.0827C93.533 76.9397 93.3911 76.8305 93.2268 76.7694C93.927 74.086 95.3072 71.6258 97.2357 69.6237C99.1586 71.6252 100.536 74.0819 101.236 76.7608C101.057 76.8106 100.9 76.9161 100.786 77.0618C100.672 77.2075 100.608 77.3857 100.604 77.5701V78.8701C100.604 79.0984 100.695 79.3174 100.858 79.4789C101.02 79.6403 101.24 79.731 101.47 79.731H104.596C104.822 79.7265 105.038 79.6338 105.197 79.4729C105.355 79.3119 105.444 79.0955 105.444 78.8701Z" fill="#C0987B"/>
<path d="M78.3407 53.042C78.4844 53.1617 78.6524 53.2491 78.8333 53.2981C79.0141 53.3472 79.2035 53.3567 79.3884 53.3261C82.7393 52.7751 86.8608 51.3459 88.9129 45.1817C89.0255 44.8201 89.164 44.4585 89.3025 44.0883C89.5363 43.4598 89.7788 42.8141 89.9692 42.1598C91.3719 38.277 95.2337 37.3213 98.3854 37.0458V48.7373C98.0819 48.7866 97.806 48.942 97.6076 49.1756C97.4091 49.4093 97.3011 49.7057 97.3031 50.0115V52.181C97.3031 52.5235 97.4399 52.852 97.6835 53.0942C97.9271 53.3364 98.2574 53.4724 98.6019 53.4724H103.234C103.592 53.4441 103.925 53.2814 104.166 53.0176C104.407 52.7537 104.539 52.4084 104.533 52.0519V50.0804C104.547 49.7574 104.439 49.4409 104.231 49.1926C104.023 48.9443 103.729 48.782 103.407 48.7373V5.0363H104.152C104.497 5.0363 104.827 4.90024 105.07 4.65806C105.314 4.41587 105.451 4.0874 105.451 3.7449V1.70449C105.451 1.36199 105.314 1.03352 105.07 0.791331C104.827 0.549146 104.497 0.413086 104.152 0.413086H101.554C94.3332 0.464742 91.2507 0.852162 87.2158 2.99589C84.9832 4.24395 83.0878 6.01098 81.6915 8.14594C80.2953 10.2809 79.4397 12.7203 79.1979 15.2556C78.6005 20.6106 80.4621 26.0689 83.9429 29.1597C86.1648 31.2074 88.8314 32.7187 91.7356 33.5763C87.5189 35.2981 85.8564 38.4233 84.8087 41.6863C84.8087 41.6863 84.8087 41.6863 84.8087 41.7379C84.8087 41.7896 84.7135 42.0048 84.6615 42.1598C84.6096 42.3147 84.497 42.6333 84.3238 43.0207C83.1809 46.3697 81.4145 47.489 78.765 48.3068C78.4955 48.3861 78.2597 48.5512 78.0939 48.7768C77.928 49.0023 77.8414 49.2758 77.8472 49.5552V52.0347C77.8455 52.2291 77.8892 52.4213 77.9748 52.596C78.0605 52.7708 78.1857 52.9235 78.3407 53.042ZM98.3941 5.05352V29.9345C96.2987 29.814 92.1253 29.263 88.7917 26.8868C85.8218 24.7517 84.116 20.757 84.3498 16.4351C84.5576 12.4231 86.4019 9.04825 89.2852 7.41248C92.0818 5.9004 95.2108 5.09893 98.3941 5.07935V5.05352Z" fill="#C0987B"/>
</g>
<defs>
<clipPath id="clip0">
<rect width="203.261" height="170" fill="white"/>
</clipPath>
</defs>
</svg>
