<svg width="22" height="22" viewBox="0 0 22 22" fill="none" xmlns="http://www.w3.org/2000/svg">
<path d="M10.5905 2.40786C13.4183 2.40786 13.7533 2.41856 14.87 2.46932C15.9025 2.51635 16.4633 2.68807 16.8366 2.83256C17.3309 3.02391 17.6837 3.25256 18.0543 3.6218C18.425 3.99104 18.6545 4.34245 18.8466 4.83493C18.9916 5.20677 19.1642 5.76542 19.2112 6.79401C19.2622 7.9066 19.2729 8.24017 19.2729 11.0572C19.2729 13.8743 19.2622 14.208 19.2112 15.3205C19.1642 16.3491 18.9916 16.9077 18.8466 17.2796C18.6545 17.772 18.425 18.1234 18.0543 18.4927C17.6837 18.8619 17.3309 19.0906 16.8366 19.2819C16.4633 19.4264 15.9025 19.5983 14.87 19.6452C13.7535 19.6959 13.4185 19.7066 10.5905 19.7066C7.76248 19.7066 7.42747 19.6959 6.31095 19.6452C5.27843 19.5983 4.71766 19.4264 4.3444 19.2819C3.85003 19.0906 3.49727 18.8619 3.12662 18.4927C2.75597 18.1234 2.52646 17.772 2.33437 17.2796C2.18934 16.9077 2.01679 16.3491 1.96974 15.3205C1.91879 14.2079 1.90805 13.8743 1.90805 11.0572C1.90805 8.24017 1.91879 7.90644 1.96974 6.79401C2.01679 5.76542 2.18934 5.20677 2.33437 4.83493C2.52646 4.34245 2.75597 3.99104 3.12662 3.6218C3.49727 3.25256 3.85003 3.02391 4.3444 2.83256C4.71766 2.68807 5.27843 2.51618 6.31095 2.46932C7.42763 2.41856 7.76248 2.40786 10.5905 2.40786ZM10.5905 0.506836C7.71414 0.506836 7.35356 0.518998 6.22386 0.570403C5.0966 0.621647 4.32681 0.800025 3.65306 1.06078C2.95668 1.33046 2.36594 1.6911 1.77716 2.27764C1.18838 2.86418 0.826203 3.45251 0.555661 4.1464C0.293908 4.81758 0.114841 5.58445 0.063402 6.70742C0.0118003 7.83266 -0.000244141 8.19201 -0.000244141 11.0574C-0.000244141 13.9226 0.011963 14.282 0.063402 15.4074C0.114841 16.5304 0.293908 17.2972 0.555661 17.9684C0.826366 18.6621 1.18838 19.2506 1.77716 19.8372C2.36594 20.4237 2.95652 20.7845 3.65306 21.054C4.32681 21.3148 5.0966 21.4932 6.22386 21.5444C7.3534 21.5958 7.71414 21.608 10.5905 21.608C13.4667 21.608 13.8274 21.5958 14.9569 21.5444C16.0842 21.4932 16.854 21.3148 17.5277 21.054C18.2241 20.7844 18.8148 20.4237 19.4036 19.8372C19.9924 19.2506 20.3546 18.6623 20.6251 17.9684C20.8869 17.2972 21.0659 16.5304 21.1174 15.4074C21.169 14.2822 21.181 13.9228 21.181 11.0574C21.181 8.19201 21.1688 7.83282 21.1174 6.70742C21.0659 5.58445 20.8869 4.81758 20.6251 4.1464C20.3544 3.45267 19.9924 2.86418 19.4036 2.27764C18.8148 1.6911 18.2243 1.33029 17.5277 1.06078C16.854 0.800025 16.0842 0.621647 14.9569 0.570403C13.8274 0.518998 13.4667 0.506836 10.5905 0.506836Z" fill="white"/>
<path d="M10.5905 5.63965C7.58684 5.63965 5.15195 8.06527 5.15195 11.0575C5.15195 14.0497 7.58684 16.4753 10.5905 16.4753C13.5941 16.4753 16.029 14.0497 16.029 11.0575C16.029 8.06527 13.594 5.63965 10.5905 5.63965ZM10.5905 14.5741C8.64085 14.5741 7.06024 12.9995 7.06024 11.0573C7.06024 9.1151 8.64085 7.54051 10.5905 7.54051C12.5401 7.54051 14.1207 9.1151 14.1207 11.0573C14.1207 12.9995 12.5401 14.5741 10.5905 14.5741Z" fill="white"/>
<path d="M16.2437 17.9553C16.9455 17.9553 17.5145 17.3885 17.5145 16.6893C17.5145 15.9901 16.9455 15.4233 16.2437 15.4233C15.5418 15.4233 14.9728 15.9901 14.9728 16.6893C14.9728 17.3885 15.5418 17.9553 16.2437 17.9553Z" fill="white"/>
</svg>
