<svg width="55" height="46" viewBox="0 0 55 46" fill="none" xmlns="http://www.w3.org/2000/svg">
<g clip-path="url(#clip0)">
<path d="M18.6379 44.6701H18.6168C18.5934 44.4371 18.5676 44.1902 18.5395 43.906C18.256 41.1105 17.7289 35.9062 17.108 31.5592L17.0377 31.056C16.6043 28.0275 16.2927 25.8307 15.632 24.8243C15.473 24.6036 15.2444 24.442 14.9825 24.3652C14.7206 24.2884 14.4404 24.3008 14.1864 24.4003C13.6756 24.617 13.4296 24.9501 13.0735 26.3898C12.2699 29.6512 10.7306 41.6579 10.3838 44.6677H10.3065C10.2133 44.6677 10.1239 44.7045 10.058 44.7701C9.9921 44.8356 9.95508 44.9245 9.95508 45.0172V45.5949C9.95508 45.6876 9.9921 45.7765 10.058 45.842C10.1239 45.9075 10.2133 45.9443 10.3065 45.9443H11.8013C11.8945 45.9443 11.9839 45.9075 12.0498 45.842C12.1157 45.7765 12.1527 45.6876 12.1527 45.5949V45.0172C12.1533 44.9316 12.122 44.8488 12.065 44.7847C12.0079 44.7207 11.929 44.6798 11.8435 44.6701C11.888 44.2764 11.9512 43.8221 12.0262 43.284C12.0895 42.818 12.1644 42.2683 12.2441 41.6346H16.8105C16.9253 42.5082 17.0026 43.4377 17.0658 44.1972C17.0799 44.3579 17.0916 44.514 17.1033 44.6631C17.0153 44.6706 16.9333 44.7107 16.8734 44.7754C16.8136 44.84 16.7803 44.9246 16.78 45.0125V45.5949C16.78 45.6876 16.817 45.7765 16.8829 45.842C16.9488 45.9075 17.0382 45.9443 17.1314 45.9443H18.6309C18.7241 45.9443 18.8135 45.9075 18.8794 45.842C18.9453 45.7765 18.9823 45.6876 18.9823 45.5949V45.0125C18.9805 44.9222 18.9437 44.8362 18.8795 44.7723C18.8153 44.7085 18.7287 44.6718 18.6379 44.6701V44.6701ZM15.1423 40.2951L12.4058 40.2811C12.9001 35.9621 13.7014 30.5411 14.2543 27.317C14.4371 26.25 14.587 25.8913 14.6503 25.7795C14.785 26.0904 14.8772 26.4179 14.9244 26.7532C15.1095 27.6851 15.3297 29.148 15.6273 31.3495C15.9693 33.9283 16.2716 36.8194 16.4707 38.7319C16.541 39.3982 16.5973 39.9363 16.6394 40.3021L15.1423 40.2951Z" fill="#1F1E21"/>
<path d="M21.0865 20.6541C21.2754 20.3612 21.3862 20.0252 21.4083 19.678C21.4305 19.3307 21.3632 18.9835 21.213 18.6693C20.8006 17.8143 19.99 17.593 19.2051 17.5208C19.2051 17.3787 19.2051 17.197 19.2051 17.0106C19.2051 16.7776 19.2051 16.5447 19.2051 16.3583H19.2238C19.286 16.3583 19.3456 16.3338 19.3895 16.2901C19.4334 16.2464 19.4581 16.1871 19.4581 16.1254V15.7759C19.4581 15.7141 19.4334 15.6549 19.3895 15.6112C19.3456 15.5675 19.286 15.543 19.2238 15.543H18.378C18.3159 15.543 18.2563 15.5675 18.2124 15.6112C18.1684 15.6549 18.1437 15.7141 18.1437 15.7759V16.1254C18.1437 16.1871 18.1684 16.2464 18.2124 16.2901C18.2563 16.3338 18.3159 16.3583 18.378 16.3583C18.378 16.8033 18.378 17.6373 18.378 18.8487C18.378 19.8713 18.378 20.4304 18.3944 20.7449H18.371C18.3089 20.7449 18.2493 20.7695 18.2053 20.8132C18.1614 20.8569 18.1367 20.9161 18.1367 20.9779V21.3087C18.1367 21.3705 18.1614 21.4297 18.2053 21.4734C18.2493 21.5171 18.3089 21.5417 18.371 21.5417H18.7576H19.0364H19.2051C19.9384 21.5603 20.7303 21.1852 21.0865 20.6541ZM19.1981 18.3455C19.5815 18.3636 19.9499 18.4995 20.2524 18.7345C20.372 18.8562 20.4625 19.0032 20.5168 19.1646C20.5712 19.326 20.5881 19.4975 20.5663 19.6663C20.5484 19.8498 20.4859 20.0262 20.3843 20.1804C20.2827 20.3346 20.145 20.462 19.9829 20.5516C19.7441 20.6864 19.4726 20.7533 19.1981 20.7449V18.3455Z" fill="#1F1E21"/>
<path d="M23.4194 16.1254V15.7759C23.4194 15.7141 23.3948 15.6549 23.3508 15.6112C23.3069 15.5675 23.2473 15.543 23.1852 15.543H22.3417C22.2796 15.543 22.22 15.5675 22.176 15.6112C22.1321 15.6549 22.1074 15.7141 22.1074 15.7759V16.1254C22.1074 16.1871 22.1321 16.2464 22.176 16.2901C22.22 16.3338 22.2796 16.3583 22.3417 16.3583C22.3417 16.8662 22.3417 18.0543 22.3417 20.7496H22.33C22.2679 20.7496 22.2083 20.7741 22.1643 20.8178C22.1204 20.8615 22.0957 20.9208 22.0957 20.9826V21.3413C22.0957 21.4031 22.1204 21.4623 22.1643 21.506C22.2083 21.5497 22.2679 21.5743 22.33 21.5743H23.1734C23.2356 21.5743 23.2952 21.5497 23.3391 21.506C23.383 21.4623 23.4077 21.4031 23.4077 21.3413V20.9895C23.4077 20.9278 23.383 20.8685 23.3391 20.8248C23.2952 20.7811 23.2356 20.7566 23.1734 20.7566H23.15C23.15 18.5598 23.15 17.0292 23.15 16.3653H23.1734C23.2058 16.3669 23.2381 16.3619 23.2684 16.3505C23.2987 16.339 23.3262 16.3215 23.3493 16.299C23.3725 16.2764 23.3906 16.2493 23.4027 16.2195C23.4148 16.1896 23.4205 16.1575 23.4194 16.1254Z" fill="#1F1E21"/>
<path d="M11.4851 16.3582H11.5577V20.7611C11.4956 20.7611 11.436 20.7857 11.392 20.8294C11.3481 20.8731 11.3234 20.9323 11.3234 20.9941V21.3412C11.3234 21.403 11.3481 21.4622 11.392 21.5059C11.436 21.5496 11.4956 21.5742 11.5577 21.5742H12.4012C12.4633 21.5742 12.5229 21.5496 12.5668 21.5059C12.6108 21.4622 12.6354 21.403 12.6354 21.3412V20.9918C12.6354 20.93 12.6108 20.8707 12.5668 20.827C12.5229 20.7833 12.4633 20.7588 12.4012 20.7588V17.4461L12.94 18.6272C13.3032 19.41 13.6429 20.1368 13.7085 20.2859C13.7741 20.435 13.9428 20.8101 14.3294 20.8194C14.3629 20.823 14.3966 20.823 14.4301 20.8194H14.4559C14.6712 20.7164 14.8388 20.5356 14.9245 20.3139C14.9877 20.1694 15.3251 19.4449 15.6859 18.6668L16.2318 17.4857V20.7774C16.1697 20.7774 16.1101 20.802 16.0662 20.8457C16.0222 20.8894 15.9975 20.9486 15.9975 21.0104V21.3412C15.9975 21.403 16.0222 21.4622 16.0662 21.5059C16.1101 21.5496 16.1697 21.5742 16.2318 21.5742H17.0776C17.1398 21.5742 17.1994 21.5496 17.2433 21.5059C17.2872 21.4622 17.3119 21.403 17.3119 21.3412V20.9918C17.3119 20.93 17.2872 20.8707 17.2433 20.827C17.1994 20.7833 17.1398 20.7588 17.0776 20.7588V16.3582H17.1362C17.1983 16.3582 17.2579 16.3337 17.3019 16.29C17.3458 16.2463 17.3705 16.187 17.3705 16.1253V15.7758C17.3704 15.745 17.3641 15.7145 17.352 15.6861C17.3399 15.6577 17.3223 15.632 17.3002 15.6104C17.2782 15.5881 17.252 15.5705 17.223 15.5584C17.194 15.5464 17.1629 15.5403 17.1315 15.5405H16.4544C16.2201 15.5755 16.0631 15.8294 15.8734 16.2604C15.7609 16.5329 14.7933 18.6366 14.3153 19.6709C13.8678 18.7111 12.8557 16.512 12.7432 16.2441C12.4878 15.6547 12.2746 15.5615 12.1411 15.5452H11.9654C11.8717 15.5452 11.7475 15.5452 11.5928 15.5452H11.4921C11.43 15.5452 11.3704 15.5697 11.3264 15.6134C11.2825 15.6571 11.2578 15.7164 11.2578 15.7782V16.1276C11.2584 16.1878 11.2824 16.2454 11.3247 16.2884C11.3671 16.3314 11.4246 16.3564 11.4851 16.3582Z" fill="#1F1E21"/>
<path d="M26.9974 24.356H25.5916C25.4984 24.356 25.409 24.3928 25.3431 24.4583C25.2772 24.5238 25.2402 24.6127 25.2402 24.7054V25.2855C25.2402 25.3781 25.2772 25.467 25.3431 25.5326C25.409 25.5981 25.4984 25.6349 25.5916 25.6349H25.6057V37.814H21.3345C21.3345 33.8001 21.3345 27.2773 21.3345 25.6349H21.3509C21.4441 25.6349 21.5335 25.5981 21.5994 25.5326C21.6653 25.467 21.7024 25.3781 21.7024 25.2855V24.7054C21.7024 24.6127 21.6653 24.5238 21.5994 24.4583C21.5335 24.3928 21.4441 24.356 21.3509 24.356H19.9452C19.852 24.356 19.7626 24.3928 19.6967 24.4583C19.6308 24.5238 19.5938 24.6127 19.5938 24.7054V25.2855C19.5938 25.3781 19.6308 25.467 19.6967 25.5326C19.7626 25.5981 19.852 25.6349 19.9452 25.6349H19.9686V44.6583H19.9522C19.859 44.6583 19.7696 44.6951 19.7037 44.7606C19.6378 44.8262 19.6008 44.9151 19.6008 45.0077V45.5901C19.6008 45.6828 19.6378 45.7717 19.7037 45.8372C19.7696 45.9028 19.859 45.9396 19.9522 45.9396H21.358C21.4512 45.9396 21.5406 45.9028 21.6065 45.8372C21.6724 45.7717 21.7094 45.6828 21.7094 45.5901V45.0077C21.7094 44.9151 21.6724 44.8262 21.6065 44.7606C21.5406 44.6951 21.4512 44.6583 21.358 44.6583H21.3416V39.1768H25.615V44.6583H25.5916C25.4984 44.6583 25.409 44.6951 25.3431 44.7606C25.2772 44.8262 25.2402 44.9151 25.2402 45.0077V45.5901C25.2402 45.6828 25.2772 45.7717 25.3431 45.8372C25.409 45.9028 25.4984 45.9396 25.5916 45.9396H26.9974C27.0906 45.9396 27.18 45.9028 27.2459 45.8372C27.3118 45.7717 27.3488 45.6828 27.3488 45.5901V45.0077C27.3488 44.9151 27.3118 44.8262 27.2459 44.7606C27.18 44.6951 27.0906 44.6583 26.9974 44.6583V44.6583V42.0958C26.9974 37.6905 26.9974 29.5975 26.9974 25.6256C27.0906 25.6256 27.18 25.5888 27.2459 25.5232C27.3118 25.4577 27.3488 25.3688 27.3488 25.2761V24.6961C27.3464 24.605 27.3083 24.5185 27.2426 24.455C27.177 24.3915 27.089 24.3559 26.9974 24.356V24.356Z" fill="#1F1E21"/>
<path d="M35.3341 24.356H33.9283C33.8351 24.356 33.7457 24.3928 33.6798 24.4583C33.6139 24.5238 33.5769 24.6127 33.5769 24.7054V25.2855C33.5769 25.3781 33.6139 25.467 33.6798 25.5326C33.7457 25.5981 33.8351 25.6349 33.9283 25.6349H33.9447V35.6218H29.6666V25.6349H29.683C29.7762 25.6349 29.8656 25.5981 29.9315 25.5326C29.9974 25.467 30.0344 25.3781 30.0344 25.2855V24.7054C30.0344 24.6127 29.9974 24.5238 29.9315 24.4583C29.8656 24.3928 29.7762 24.356 29.683 24.356H28.2772C28.184 24.356 28.0946 24.3928 28.0287 24.4583C27.9628 24.5238 27.9258 24.6127 27.9258 24.7054V25.2855C27.9258 25.3781 27.9628 25.467 28.0287 25.5326C28.0946 25.5981 28.184 25.6349 28.2772 25.6349H28.2913V44.6583H28.2772C28.184 44.6583 28.0946 44.6951 28.0287 44.7606C27.9628 44.8262 27.9258 44.9151 27.9258 45.0077V45.5901C27.9258 45.6828 27.9628 45.7717 28.0287 45.8372C28.0946 45.9028 28.184 45.9396 28.2772 45.9396H29.683C29.7762 45.9396 29.8656 45.9028 29.9315 45.8372C29.9974 45.7717 30.0344 45.6828 30.0344 45.5901V45.0077C30.0344 44.9151 29.9974 44.8262 29.9315 44.7606C29.8656 44.6951 29.7762 44.6583 29.683 44.6583H29.6666V36.987H33.9471V44.6583H33.9307C33.8375 44.6583 33.7481 44.6951 33.6822 44.7606C33.6163 44.8262 33.5792 44.9151 33.5792 45.0077V45.5901C33.5792 45.6828 33.6163 45.7717 33.6822 45.8372C33.7481 45.9028 33.8375 45.9396 33.9307 45.9396H35.3364C35.4296 45.9396 35.519 45.9028 35.5849 45.8372C35.6508 45.7717 35.6879 45.6828 35.6879 45.5901V45.0077C35.6879 44.9151 35.6508 44.8262 35.5849 44.7606C35.519 44.6951 35.4296 44.6583 35.3364 44.6583H35.32V25.6349H35.3341C35.4273 25.6349 35.5167 25.5981 35.5826 25.5326C35.6485 25.467 35.6855 25.3781 35.6855 25.2855V24.7054C35.6855 24.6127 35.6485 24.5238 35.5826 24.4583C35.5167 24.3928 35.4273 24.356 35.3341 24.356Z" fill="#1F1E21"/>
<path d="M45.8259 44.7258H45.7416V25.6418H45.7954C45.8886 25.6418 45.978 25.605 46.0439 25.5395C46.1099 25.474 46.1469 25.3851 46.1469 25.2924V24.7147C46.1469 24.622 46.1099 24.5331 46.0439 24.4676C45.978 24.4021 45.8886 24.3652 45.7954 24.3652H44.3007C44.2074 24.3652 44.1181 24.4021 44.0522 24.4676C43.9862 24.5331 43.9492 24.622 43.9492 24.7147V25.3017C43.9492 25.3944 43.9862 25.4833 44.0522 25.5488C44.1181 25.6143 44.2074 25.6512 44.3007 25.6512H44.3686V44.7351H44.3358C44.2426 44.7351 44.1532 44.7719 44.0873 44.8375C44.0214 44.903 43.9844 44.9919 43.9844 45.0846V45.66C43.9844 45.7527 44.0214 45.8415 44.0873 45.9071C44.1532 45.9726 44.2426 46.0094 44.3358 46.0094H45.8306C45.9238 46.0094 46.0132 45.9726 46.0791 45.9071C46.145 45.8415 46.182 45.7527 46.182 45.66V45.0846C46.1833 45.0375 46.175 44.9907 46.1576 44.9469C46.1402 44.9031 46.1141 44.8633 46.0808 44.8298C46.0476 44.7962 46.0078 44.7698 45.964 44.7519C45.9202 44.734 45.8732 44.7252 45.8259 44.7258V44.7258Z" fill="#1F1E21"/>
<path d="M38.0326 33.0616V25.6372H38.0982C38.1914 25.6372 38.2808 25.6004 38.3467 25.5349C38.4126 25.4693 38.4496 25.3805 38.4496 25.2878V24.7054C38.4496 24.6127 38.4126 24.5238 38.3467 24.4583C38.2808 24.3928 38.1914 24.356 38.0982 24.356H36.6034C36.5102 24.356 36.4208 24.3928 36.3549 24.4583C36.289 24.5238 36.252 24.6127 36.252 24.7054V25.2878C36.2517 25.3336 36.2605 25.379 36.2779 25.4213C36.2953 25.4637 36.3209 25.5023 36.3534 25.5347C36.3858 25.5672 36.4244 25.593 36.4669 25.6106C36.5094 25.6282 36.555 25.6372 36.6011 25.6372H36.662V44.6746H36.6432C36.5506 44.6758 36.4622 44.7131 36.3969 44.7784C36.3316 44.8438 36.2947 44.932 36.2941 45.024V45.5692C36.2941 45.6618 36.3312 45.7507 36.3971 45.8163C36.463 45.8818 36.5524 45.9186 36.6456 45.9186H37.9482C38.6769 45.886 40.5254 45.6507 41.9101 44.1831C42.8031 43.1967 43.3341 41.9388 43.4166 40.6141C43.5384 39.1465 43.3346 37.0638 42.7137 35.92C41.7836 34.3079 40.1717 33.3225 38.0326 33.0616ZM38.0326 34.4081C38.802 34.4839 39.54 34.7506 40.1787 35.1839C41.2541 35.8967 42.2147 36.8146 42.1514 40.062C42.1233 41.4598 41.6828 42.5896 40.8136 43.4073C40.0465 44.1108 39.0707 44.5481 38.0326 44.6536V34.4081Z" fill="#1F1E21"/>
<path d="M9.37859 45.4221C9.11272 44.8065 8.68749 44.2719 8.14621 43.8729L8.16027 42.3889C8.18136 41.7273 8.20245 40.9912 8.19073 40.5742C8.16964 39.3302 8.17433 34.3193 8.19073 30.2937C8.19073 28.2577 8.19073 26.4592 8.19073 25.6159H8.45548C8.54866 25.6158 8.63798 25.579 8.70383 25.5134C8.73697 25.4809 8.76317 25.442 8.78088 25.3992C8.7986 25.3564 8.80745 25.3105 8.80692 25.2642V24.6957C8.80569 24.6037 8.7682 24.5157 8.70249 24.4508C8.63678 24.3859 8.5481 24.3492 8.45548 24.3486H2.95665C2.86363 24.3492 2.7746 24.3863 2.70883 24.4517C2.64305 24.5171 2.60583 24.6056 2.60521 24.6981V25.2665C2.60521 25.3592 2.64224 25.448 2.70815 25.5136C2.77405 25.5791 2.86344 25.6159 2.95665 25.6159H3.33386C3.36198 28.6118 3.27997 32.183 3.13003 34.4241L3.10426 34.8434C2.98008 36.8073 2.72236 40.8747 1.30021 43.2788C0.573904 43.7797 0.206066 44.3691 -0.00245397 45.3545C-0.012978 45.4048 -0.0121317 45.4568 2.35137e-05 45.5068C0.0121787 45.5568 0.0353402 45.6034 0.0678343 45.6434C0.0999261 45.6835 0.140461 45.7162 0.1866 45.7392C0.232738 45.7621 0.283363 45.7747 0.334927 45.7762L1.00969 45.7878C1.08808 45.7879 1.16422 45.7618 1.22584 45.7136C1.28747 45.6654 1.331 45.598 1.34941 45.5222C1.41147 45.2934 1.50448 45.074 1.62587 44.87C2.01714 44.2829 2.78328 44.008 3.90319 44.0523C5.02311 44.0965 6.59052 44.3132 7.48551 45.0959C7.67148 45.2582 7.82973 45.4494 7.9541 45.662C7.99158 45.7203 8.02438 45.7715 8.05718 45.8158C8.08953 45.8605 8.1321 45.8969 8.1814 45.922C8.23069 45.9471 8.28529 45.9602 8.34068 45.9602H9.06932C9.12795 45.9606 9.18572 45.9462 9.23732 45.9186C9.28891 45.8909 9.33266 45.8507 9.36453 45.8018C9.3959 45.7521 9.41445 45.6955 9.41853 45.637C9.42262 45.5785 9.41212 45.5198 9.38796 45.4663L9.37859 45.4221ZM4.14217 42.6895C4.05782 42.6895 3.95239 42.6895 3.82822 42.6895C3.62438 42.6895 3.37838 42.6895 3.12534 42.7197C4.25229 40.078 4.4444 35.6075 4.53109 33.8417C4.68573 30.3077 4.72556 27.1232 4.73727 25.6299H6.79669L6.78264 43.1857C5.93144 42.9075 5.04646 42.7445 4.15154 42.7011L4.14217 42.6895Z" fill="#1F1E21"/>
<path d="M1.33012 14.29H2.00253C2.08124 14.29 2.15763 14.2635 2.2193 14.2149C2.28097 14.1662 2.3243 14.0983 2.34226 14.0221C2.39864 13.7887 2.4861 13.5639 2.60232 13.3535C2.95376 12.8294 3.43406 12.4892 4.64769 12.5382C5.78869 12.5801 7.33501 12.7991 8.23235 13.5818C8.41817 13.7442 8.5764 13.9354 8.70093 14.1479C8.73608 14.2038 8.76888 14.2551 8.80168 14.3017C8.83453 14.3457 8.87727 14.3814 8.92649 14.4061C8.97571 14.4308 9.03005 14.4437 9.08517 14.4438H9.81382C9.87247 14.4433 9.93009 14.4284 9.98149 14.4003C10.0329 14.3723 10.0765 14.3319 10.1083 14.2829C10.1401 14.234 10.1592 14.1779 10.1639 14.1197C10.1685 14.0616 10.1585 14.0032 10.1348 13.9499L10.1184 13.9126C9.85037 13.2983 9.42456 12.7648 8.88368 12.3658L8.90008 10.8795C8.92117 10.2202 8.94225 9.48175 8.9282 9.06475C8.90945 7.83939 8.91414 5.69384 8.9282 3.80222C8.9282 2.84476 8.9282 1.97349 8.9282 1.37246H9.1906C9.28368 1.37187 9.37282 1.33508 9.43895 1.26996C9.50459 1.20335 9.54157 1.11394 9.54204 1.02069V0.452272C9.53782 0.36245 9.49894 0.277703 9.43348 0.215657C9.36803 0.153611 9.28104 0.119043 9.1906 0.119141V0.119141H3.74801C3.6548 0.119141 3.56541 0.155956 3.4995 0.221489C3.43359 0.287021 3.39657 0.375902 3.39657 0.468579V1.037C3.39657 1.12967 3.43359 1.21856 3.4995 1.28409C3.56541 1.34962 3.6548 1.38644 3.74801 1.38644H4.09007C4.10647 3.2501 4.09007 5.5098 3.78784 7.22438C3.44343 9.28373 2.93033 10.8585 2.30243 11.7904C1.56909 12.2936 1.19891 12.8829 0.992735 13.873C0.98138 13.9231 0.981595 13.9752 0.993363 14.0252C1.00513 14.0752 1.02815 14.122 1.06068 14.1619C1.09358 14.2014 1.13472 14.2333 1.18124 14.2554C1.22776 14.2775 1.27855 14.2893 1.33012 14.29V14.29ZM4.89604 11.1963H4.60551C4.44151 11.1963 4.27985 11.2033 4.12053 11.2173C4.56529 10.0584 4.88876 8.85693 5.08581 7.63206C5.35993 6.02697 5.44896 2.95658 5.47708 1.39808H7.53885L7.52479 11.6902C6.67434 11.4126 5.79011 11.2504 4.89604 11.208V11.1963Z" fill="#1F1E21"/>
<path d="M37.2443 20.3885H37.1811C37.0876 20.3895 36.9983 20.4272 36.9327 20.4934C36.8996 20.5259 36.8734 20.5647 36.8557 20.6076C36.838 20.6504 36.8291 20.6963 36.8296 20.7426V21.3274C36.8296 21.42 36.8667 21.5089 36.9326 21.5744C36.9985 21.64 37.0879 21.6768 37.1811 21.6768H38.6759C38.7691 21.6768 38.8585 21.64 38.9244 21.5744C38.9903 21.5089 39.0273 21.42 39.0273 21.3274V20.738C39.0273 20.6453 38.9903 20.5564 38.9244 20.4909C38.8585 20.4253 38.7691 20.3885 38.6759 20.3885H38.629C38.629 17.3414 38.629 14.9303 38.6524 12.7941C38.6712 8.88038 38.6876 5.78902 38.6267 1.13451C38.6267 0.824673 38.6126 0 37.474 0H32.7413C31.7291 0 31.5979 0.610352 31.5979 1.1415C31.5979 4.50542 31.5979 18.0426 31.5979 20.3932H31.5487C31.4555 20.3932 31.3661 20.43 31.3002 20.4955C31.2343 20.5611 31.1973 20.65 31.1973 20.7426V21.3274C31.1973 21.42 31.2343 21.5089 31.3002 21.5744C31.3661 21.64 31.4555 21.6768 31.5487 21.6768H33.0435C33.1367 21.6768 33.2261 21.64 33.292 21.5744C33.3579 21.5089 33.3949 21.42 33.3949 21.3274V20.7426C33.3949 20.65 33.3579 20.5611 33.292 20.4955C33.2261 20.43 33.1367 20.3932 33.0435 20.3932H32.9685V1.39309H37.2584L37.2443 20.3885Z" fill="#1F1E21"/>
<path d="M40.5859 1.33262H40.8905V20.3933H40.7475C40.6547 20.3939 40.566 20.431 40.5006 20.4965C40.4352 20.5619 40.3984 20.6505 40.3984 20.7427V21.3275C40.3984 21.4201 40.4355 21.509 40.5014 21.5745C40.5673 21.6401 40.6567 21.6769 40.7499 21.6769H42.4321C42.5253 21.6769 42.6147 21.6401 42.6806 21.5745C42.7465 21.509 42.7835 21.4201 42.7835 21.3275V20.7427C42.7835 20.6501 42.7465 20.5612 42.6806 20.4956C42.6147 20.4301 42.5253 20.3933 42.4321 20.3933H42.3056V12.9549C44.3228 12.7057 45.8387 11.7086 46.818 9.98936C47.46 8.86883 47.7904 7.21017 47.6802 5.66099C47.6105 4.33844 47.1226 3.07152 46.2862 2.04082C45.7943 1.40498 45.1582 0.893746 44.4298 0.548818C43.7013 0.20389 42.9012 0.0350309 42.0947 0.0560107H41.9916C41.8527 0.047736 41.7135 0.047736 41.5746 0.0560107H40.5859C40.5394 0.0557438 40.4932 0.0646671 40.4502 0.0822628C40.4072 0.0998585 40.3681 0.125776 40.3352 0.158512C40.3024 0.190729 40.2766 0.229234 40.2593 0.271685C40.242 0.314136 40.2335 0.359647 40.2344 0.405449V0.994833C40.2375 1.08548 40.2758 1.17139 40.3414 1.23443C40.407 1.29746 40.4947 1.33267 40.5859 1.33262V1.33262ZM42.3056 1.31166C42.879 1.32765 43.4406 1.47684 43.9456 1.74729C44.4124 1.97049 44.8273 2.28783 45.1639 2.67912C45.8748 3.54961 46.3015 4.61512 46.3869 5.73321C46.4528 7.02018 46.1696 8.3011 45.5669 9.44191V9.44191C45.2671 9.99023 44.8457 10.4635 44.3346 10.8257C43.7326 11.2534 43.0387 11.5358 42.3079 11.6504L42.3056 1.31166Z" fill="#1F1E21"/>
<path d="M48.4827 1.34896H48.7592V20.3957H48.5038C48.4106 20.3957 48.3212 20.4325 48.2553 20.498C48.1894 20.5635 48.1523 20.6524 48.1523 20.7451V21.3275C48.1523 21.4202 48.1894 21.509 48.2553 21.5746C48.3212 21.6401 48.4106 21.6769 48.5038 21.6769H53.7964C53.8236 21.6805 53.8512 21.6805 53.8784 21.6769H54.5626C54.6558 21.6769 54.7452 21.6401 54.8111 21.5746C54.877 21.509 54.914 21.4202 54.914 21.3275V19.1493C54.914 19.0566 54.877 18.9678 54.8111 18.9022C54.7452 18.8367 54.6558 18.7999 54.5626 18.7999H53.8784C53.7852 18.7999 53.6958 18.8367 53.6299 18.9022C53.564 18.9678 53.527 19.0566 53.527 19.1493V20.4096L50.1626 20.3863V10.3388H52.5945C52.6877 10.3388 52.7771 10.302 52.843 10.2365C52.9089 10.171 52.9459 10.0821 52.9459 9.98939V9.3837C52.9455 9.29045 52.9085 9.20104 52.8429 9.13444C52.8108 9.10075 52.7718 9.07436 52.7285 9.05707C52.6853 9.03977 52.6387 9.032 52.5922 9.03426L50.1626 9.0529V1.36527H51.3012C52.0603 1.36527 52.9694 1.36527 53.527 1.36527V2.4462C53.5271 2.51342 53.5466 2.57921 53.5831 2.63577C53.6196 2.69233 53.6717 2.7373 53.7332 2.76535C53.7924 2.80581 53.8628 2.82698 53.9347 2.82592H54.5719C54.6651 2.82592 54.7545 2.7891 54.8204 2.72357C54.8863 2.65804 54.9234 2.56916 54.9234 2.47648V0.403149C54.9234 0.310472 54.8863 0.221592 54.8204 0.15606C54.7545 0.0905272 54.6651 0.0537109 54.5719 0.0537109H48.4803C48.3871 0.0537109 48.2977 0.0905272 48.2318 0.15606C48.1659 0.221592 48.1289 0.310472 48.1289 0.403149V0.999523C48.1289 1.04561 48.1381 1.09124 48.1559 1.13379C48.1737 1.17634 48.1998 1.21496 48.2327 1.24744C48.2655 1.27992 48.3046 1.30561 48.3475 1.32303C48.3904 1.34046 48.4363 1.34927 48.4827 1.34896V1.34896Z" fill="#1F1E21"/>
<path d="M11.4747 14.3526C11.5138 14.3847 11.5593 14.4082 11.6081 14.4214C11.657 14.4347 11.7082 14.4374 11.7582 14.4295C13.5857 14.1266 14.4339 12.9828 14.6845 10.4692C14.7759 9.55363 14.7572 7.16347 14.7455 5.73544C14.7455 5.41163 14.7455 5.15071 14.7455 4.98298C14.7137 4.22918 14.8489 3.47765 15.1414 2.78152C15.3667 2.35819 15.7036 2.00384 16.1161 1.7565C16.6081 1.44434 17.7561 1.32786 18.056 1.34184H18.0935H18.288V13.1878C18.2069 13.2025 18.1336 13.2451 18.0809 13.3082C18.0283 13.3712 17.9995 13.4506 17.9998 13.5326V14.1196C17.9998 14.2123 18.0368 14.3012 18.1027 14.3667C18.1686 14.4322 18.258 14.4691 18.3512 14.4691H19.5953C19.6885 14.4691 19.7779 14.4322 19.8438 14.3667C19.9097 14.3012 19.9467 14.2123 19.9467 14.1196V13.5512C19.9471 13.4696 19.9187 13.3904 19.8665 13.3274C19.8143 13.2645 19.7415 13.2217 19.6609 13.2064C19.6609 10.5181 19.6609 8.23508 19.6609 6.42499V1.36979H19.8624C19.9554 1.36896 20.0445 1.33221 20.1107 1.26729C20.1767 1.20182 20.2138 1.113 20.2138 1.02036V0.461254C20.2132 0.368766 20.176 0.28024 20.1102 0.21484C20.0444 0.149439 19.9554 0.112427 19.8624 0.111816H17.7538C17.7245 0.112094 17.6954 0.116007 17.6671 0.123464C16.7727 0.140623 15.897 0.380937 15.1203 0.82234L15.0711 0.840977C14.5733 1.20643 14.1714 1.68591 13.8997 2.23873C13.5192 3.10335 13.3398 4.04219 13.3749 4.98531C13.3749 5.13673 13.3749 5.48384 13.3936 5.91715C13.4194 7.0633 13.4662 8.98288 13.417 9.78193C13.2624 12.3445 12.5009 12.7801 11.5966 13.0573C11.5178 13.0784 11.4491 13.1263 11.4024 13.1928C11.3556 13.2593 11.334 13.34 11.3412 13.4207V14.0917C11.343 14.1422 11.3559 14.1917 11.379 14.2368C11.402 14.2819 11.4347 14.3214 11.4747 14.3526Z" fill="#1F1E21"/>
<path d="M54.6437 44.6863H54.5148C54.2313 40.7912 53.6784 37.5391 51.9376 33.6394C51.8017 33.3365 51.6682 33.043 51.5346 32.7564C51.8345 32.1042 52.1391 31.4891 52.4343 30.8928C53.341 29.0571 54.1236 27.452 54.4609 25.6419H54.6039C54.6971 25.6419 54.7865 25.6051 54.8524 25.5395C54.9183 25.474 54.9553 25.3851 54.9553 25.2925V24.7101C54.9553 24.6174 54.9183 24.5285 54.8524 24.463C54.7865 24.3974 54.6971 24.3606 54.6039 24.3606H53.1981C53.1049 24.3606 53.0155 24.3974 52.9496 24.463C52.8837 24.5285 52.8467 24.6174 52.8467 24.7101V25.2925C52.8467 25.3851 52.8837 25.474 52.9496 25.5395C53.0155 25.6051 53.1049 25.6419 53.1981 25.6419H53.2731C53.0107 27.0606 52.2071 28.6936 51.2886 30.5573L50.895 31.382C50.7591 31.1024 50.6232 30.8252 50.4874 30.5527C49.5689 28.689 48.7653 27.0583 48.5029 25.6372H48.5521C48.6453 25.6372 48.7347 25.6004 48.8006 25.5349C48.8665 25.4693 48.9035 25.3805 48.9035 25.2878V24.7054C48.9035 24.6127 48.8665 24.5238 48.8006 24.4583C48.7347 24.3928 48.6453 24.356 48.5521 24.356H47.1464C47.0532 24.356 46.9638 24.3928 46.8979 24.4583C46.8319 24.5238 46.7949 24.6127 46.7949 24.7054V25.2878C46.7949 25.3805 46.8319 25.4693 46.8979 25.5349C46.9638 25.6004 47.0532 25.6372 47.1464 25.6372H47.3127C47.6501 27.4473 48.4326 29.0524 49.337 30.8881C49.6345 31.4891 49.9368 32.1042 50.239 32.7518C50.1055 33.0383 49.9719 33.3319 49.836 33.6347C48.0999 37.5437 47.5493 40.8005 47.2588 44.7072H47.1464C47.0532 44.7072 46.9638 44.744 46.8979 44.8096C46.8319 44.8751 46.7949 44.964 46.7949 45.0567V45.6414C46.7949 45.7341 46.8319 45.8229 46.8979 45.8885C46.9638 45.954 47.0532 45.9908 47.1464 45.9908H48.5521C48.6453 45.9908 48.7347 45.954 48.8006 45.8885C48.8665 45.8229 48.9035 45.7341 48.9035 45.6414V45.0567C48.9035 44.964 48.8665 44.8751 48.8006 44.8096C48.7347 44.744 48.6453 44.7072 48.5521 44.7072H48.5123C48.7564 41.1249 49.5602 37.6023 50.895 34.266C52.2299 37.5951 53.0346 41.1107 53.2801 44.6863H53.2379C53.1447 44.6863 53.0553 44.7231 52.9894 44.7886C52.9235 44.8541 52.8865 44.943 52.8865 45.0357V45.6204C52.8865 45.7131 52.9235 45.802 52.9894 45.8675C53.0553 45.933 53.1447 45.9699 53.2379 45.9699H54.6437C54.7369 45.9699 54.8263 45.933 54.8922 45.8675C54.9581 45.802 54.9951 45.7131 54.9951 45.6204V45.0357C54.9951 44.943 54.9581 44.8541 54.8922 44.7886C54.8263 44.7231 54.7369 44.6863 54.6437 44.6863V44.6863Z" fill="#1F1E21"/>
<path d="M10.2361 21.2646C10.2361 20.9711 10.2361 18.7417 10.2502 18.4388V18.4202C10.2502 17.4045 10.2502 16.4447 9.68551 15.9089C9.3739 15.613 8.93344 15.4826 8.34068 15.5105C7.81332 15.5507 7.29389 15.662 6.79669 15.8413C6.75185 15.858 6.71322 15.8879 6.68599 15.9271C6.65876 15.9662 6.64425 16.0127 6.6444 16.0603V16.5262C6.6442 16.5636 6.65304 16.6004 6.67016 16.6337C6.68729 16.6669 6.7122 16.6956 6.74281 16.7173C6.77305 16.7385 6.80792 16.7523 6.84458 16.7576C6.88123 16.7629 6.91862 16.7594 6.95367 16.7475L7.16219 16.673C7.54174 16.5165 7.94644 16.4289 8.35708 16.4144C8.47889 16.398 8.60281 16.4069 8.72097 16.4406C8.83914 16.4743 8.94898 16.532 9.04355 16.6101C9.21674 16.8269 9.31236 17.095 9.31533 17.3719H9.20756C9.04824 17.3719 8.86549 17.3719 8.59606 17.3719C7.71512 17.3579 7.01927 17.5792 6.58115 18.0078C6.3882 18.2082 6.23857 18.4457 6.14146 18.7057C6.04435 18.9657 6.00182 19.2428 6.0165 19.5197C6.0087 19.8107 6.07022 20.0993 6.19605 20.3621C6.32187 20.6248 6.50842 20.8543 6.74046 21.0316C7.15833 21.3463 7.66894 21.515 8.19307 21.5115C8.36275 21.5128 8.53193 21.4932 8.6968 21.4533C8.9193 21.4019 9.13207 21.3154 9.32705 21.197C9.32705 21.2227 9.32705 21.2506 9.32705 21.2739C9.32656 21.305 9.33231 21.3358 9.34398 21.3646C9.35565 21.3934 9.37299 21.4196 9.39499 21.4417C9.41618 21.4643 9.44196 21.4823 9.47063 21.4943C9.4993 21.5064 9.53022 21.5122 9.56134 21.5115C9.71363 21.5115 9.89872 21.5115 10.0135 21.5115C10.0445 21.5101 10.0749 21.5025 10.1029 21.4892C10.1309 21.476 10.156 21.4573 10.1767 21.4343C10.1974 21.4114 10.2133 21.3845 10.2235 21.3554C10.2337 21.3263 10.238 21.2954 10.2361 21.2646V21.2646ZM7.33322 20.221C7.22493 20.1289 7.1365 20.0159 7.07323 19.889C7.00996 19.762 6.97317 19.6237 6.96508 19.4822C6.95698 19.3408 6.97774 19.1991 7.02611 19.0659C7.07448 18.9326 7.14946 18.8104 7.24653 18.7067C7.62263 18.3997 8.10406 18.2502 8.58903 18.2897H9.3411V18.4155C9.33995 18.4232 9.33995 18.4311 9.3411 18.4388C9.3411 18.7859 9.3411 19.4196 9.3411 20.0369C9.12254 20.2725 8.83615 20.4352 8.52108 20.5028C8.31424 20.5399 8.10192 20.534 7.89749 20.4855C7.69306 20.437 7.50094 20.3469 7.33322 20.221V20.221Z" fill="#1F1E21"/>
<path d="M3.33475 16.4354C3.69791 16.4354 4.04934 16.6987 4.30004 17.1599C4.32027 17.1967 4.3501 17.2274 4.38638 17.2487C4.42267 17.27 4.46407 17.2812 4.50621 17.2811H5.024C5.06298 17.2813 5.1014 17.2718 5.13577 17.2535C5.17013 17.2352 5.19936 17.2086 5.2208 17.1762C5.24429 17.1425 5.25839 17.1032 5.26168 17.0623C5.26497 17.0214 5.25734 16.9803 5.23955 16.9433C4.83891 16.0487 4.12666 15.5176 3.33475 15.5176C2.06021 15.5176 1.09961 16.7919 1.09961 18.4831C1.09961 20.1744 2.06021 21.4767 3.33475 21.4767C4.12432 21.4767 4.83656 20.9362 5.23955 20.03C5.25734 19.993 5.26497 19.9519 5.26168 19.911C5.25839 19.8701 5.24429 19.8308 5.2208 19.797C5.19963 19.7642 5.17052 19.7372 5.13614 19.7185C5.10176 19.6998 5.0632 19.6899 5.024 19.6899H4.50621C4.46383 19.69 4.42227 19.7015 4.38596 19.7233C4.34965 19.745 4.31996 19.7761 4.30004 19.8133C4.04934 20.2793 3.69791 20.5378 3.33475 20.5378C2.60611 20.5378 2.03443 19.6293 2.03443 18.4715C2.03443 17.3137 2.60845 16.4354 3.33475 16.4354Z" fill="#1F1E21"/>
<path d="M28.5324 21.3412V20.9894C28.5324 20.9276 28.5077 20.8684 28.4638 20.8247C28.4198 20.781 28.3602 20.7564 28.2981 20.7564H28.2747C28.0397 19.8185 27.554 18.9612 26.8689 18.2754C27.8248 17.318 28.1552 16.6727 28.2747 16.3652H28.3005C28.3626 16.3652 28.4222 16.3406 28.4661 16.2969C28.5101 16.2532 28.5347 16.194 28.5347 16.1322V15.7828C28.5347 15.721 28.5101 15.6617 28.4661 15.618C28.4222 15.5743 28.3626 15.5498 28.3005 15.5498H27.4547C27.3925 15.5498 27.3329 15.5743 27.289 15.618C27.245 15.6617 27.2204 15.721 27.2204 15.7828V16.1322C27.2205 16.1761 27.2331 16.2191 27.2567 16.2562C27.2804 16.2933 27.314 16.323 27.3539 16.3419C27.0917 16.8657 26.7378 17.339 26.309 17.7396C25.8795 17.3384 25.5242 16.8653 25.2593 16.3419C25.2944 16.3217 25.3236 16.2929 25.3442 16.2582C25.3647 16.2235 25.3758 16.1841 25.3765 16.1438V15.7944C25.3765 15.7326 25.3518 15.6734 25.3079 15.6297C25.2639 15.586 25.2043 15.5615 25.1422 15.5615H24.2987C24.2366 15.5615 24.177 15.586 24.1331 15.6297C24.0891 15.6734 24.0645 15.7326 24.0645 15.7944V16.1438C24.0645 16.2056 24.0891 16.2649 24.1331 16.3086C24.177 16.3523 24.2366 16.3768 24.2987 16.3768H24.3456C24.4557 16.6843 24.7861 17.3296 25.7514 18.2871C25.0663 18.9729 24.5805 19.8301 24.3456 20.7681H24.3011C24.239 20.7681 24.1794 20.7926 24.1354 20.8363C24.0915 20.88 24.0668 20.9393 24.0668 21.001V21.3412C24.0668 21.4029 24.0915 21.4622 24.1354 21.5059C24.1794 21.5496 24.239 21.5741 24.3011 21.5741H25.1445C25.2067 21.5741 25.2663 21.5496 25.3102 21.5059C25.3541 21.4622 25.3788 21.4029 25.3788 21.3412V20.9894C25.3785 20.9422 25.3638 20.8962 25.3366 20.8575C25.3094 20.8188 25.271 20.7893 25.2265 20.7727C25.416 20.0466 25.7895 19.3809 26.3113 18.8392C26.8316 19.3808 27.2042 20.0455 27.3937 20.7704C27.3454 20.7839 27.3027 20.8124 27.2719 20.8518C27.2411 20.8913 27.2239 20.9395 27.2227 20.9894V21.3412C27.2227 21.4029 27.2474 21.4622 27.2913 21.5059C27.3353 21.5496 27.3949 21.5741 27.457 21.5741H28.3028C28.3641 21.5729 28.4225 21.5478 28.4654 21.5043C28.5084 21.4607 28.5324 21.4021 28.5324 21.3412Z" fill="#1F1E21"/>
<path d="M21.1981 14.3526C21.2369 14.385 21.2824 14.4086 21.3314 14.4219C21.3803 14.4352 21.4315 14.4377 21.4816 14.4295C22.3883 14.2804 23.5035 13.8936 24.0588 12.2257C24.0892 12.1278 24.1267 12.03 24.1642 11.9298C24.2275 11.7597 24.2931 11.585 24.3446 11.408C24.7242 10.3573 25.7691 10.0988 26.6219 10.0242V13.1878C26.5398 13.2011 26.4651 13.2432 26.4115 13.3064C26.3578 13.3696 26.3285 13.4498 26.3291 13.5326V14.1196C26.3291 14.2123 26.3661 14.3012 26.432 14.3667C26.4979 14.4322 26.5873 14.4691 26.6805 14.4691H27.934C28.0307 14.4614 28.1209 14.4174 28.1861 14.346C28.2514 14.2746 28.2869 14.1811 28.2854 14.0847V13.5512C28.2892 13.4638 28.26 13.3782 28.2037 13.311C28.1474 13.2438 28.0679 13.1999 27.9808 13.1878V1.3628H28.1823C28.2755 1.3628 28.3649 1.32599 28.4308 1.26046C28.4967 1.19492 28.5337 1.10604 28.5337 1.01337V0.461254C28.5337 0.368578 28.4967 0.279697 28.4308 0.214165C28.3649 0.148633 28.2755 0.111816 28.1823 0.111816H27.4794C25.5254 0.125794 24.6914 0.230625 23.5996 0.810692C22.9955 1.1484 22.4826 1.62654 22.1048 2.20424C21.7269 2.78193 21.4954 3.442 21.43 4.12802C21.2684 5.57703 21.7721 7.05398 22.7139 7.8903C23.3152 8.4444 24.0367 8.85333 24.8226 9.08538C23.6816 9.5513 23.2317 10.3969 22.9482 11.2799C22.9482 11.2799 22.9482 11.2799 22.9482 11.2938C22.9482 11.3078 22.9225 11.366 22.9084 11.408C22.8943 11.4499 22.8639 11.5361 22.817 11.6409C22.5078 12.5471 22.0298 12.85 21.3129 13.0713C21.24 13.0927 21.1762 13.1374 21.1313 13.1985C21.0864 13.2595 21.0629 13.3335 21.0645 13.4091V14.08C21.0641 14.1326 21.0759 14.1846 21.0991 14.2319C21.1222 14.2792 21.1561 14.3205 21.1981 14.3526ZM26.6243 1.36746V8.09997C26.0573 8.06735 24.928 7.91826 24.026 7.27529C23.2224 6.69756 22.7608 5.61663 22.8241 4.44718C22.8803 3.36159 23.3793 2.44839 24.1595 2.00577C24.9162 1.59662 25.7629 1.37975 26.6243 1.37445V1.36746Z" fill="#1F1E21"/>
</g>
<defs>
<clipPath id="clip0">
<rect width="55" height="46" fill="white"/>
</clipPath>
</defs>
</svg>
