<svg width="48" height="48" viewBox="0 0 48 48" fill="none" xmlns="http://www.w3.org/2000/svg">
<path d="M43.5353 14.8838C44.0012 14.2147 44.276 13.4016 44.276 12.5252V11.3027C44.6339 11.1713 44.8901 10.8274 44.8901 10.4227V10.1323C44.8901 7.51769 42.7709 5.39059 40.166 5.39059C37.5611 5.39059 35.4419 7.51769 35.4419 10.1323V10.4227C35.4419 10.8274 35.698 11.1713 36.056 11.3027V12.5252C36.056 13.4016 36.3304 14.2147 36.7967 14.8838C34.4556 15.365 32.6659 17.3804 32.5174 19.8339H27.0887C26.5727 19.8339 26.1546 20.2536 26.1546 20.7714V26.5843H22.3653V20.7714C22.3653 20.2536 21.9468 19.8339 21.4312 19.8339H14.7058C14.1898 19.8339 13.7717 20.2536 13.7717 20.7714V26.5843H10.4089V14.0752L16.9198 7.54003L21.2656 11.9015C21.6118 12.2495 22.0256 12.4897 22.4649 12.623V14.2063L20.5125 16.166C20.3373 16.3418 20.2388 16.5802 20.2388 16.8289V18.5605C20.2388 19.0779 20.6573 19.498 21.1729 19.498C21.6888 19.498 22.107 19.0779 22.107 18.5605V17.2175L23.399 15.9206L24.6911 17.2175V18.4198C24.6911 18.9377 25.1096 19.3574 25.6252 19.3574C26.1411 19.3574 26.5592 18.9377 26.5592 18.4198V16.8289C26.5592 16.5802 26.4607 16.3418 26.2856 16.166L24.3331 14.2063V12.5567C24.7009 12.4161 25.0457 12.1982 25.3416 11.9015C25.886 11.3551 26.186 10.6285 26.186 9.85575C26.186 9.08299 25.886 8.35674 25.3416 7.81032L18.5625 1.00564C18.5607 1.00418 18.5589 1.00271 18.5574 1.00125C17.2165 -0.336247 15.0414 -0.333684 13.7034 1.00857L5.4327 9.31005C3.51197 9.68618 2.05719 11.387 2.05719 13.4236V18.2792C2.05719 18.7967 2.47571 19.2167 2.99129 19.2167C3.50723 19.2167 3.92538 18.7967 3.92538 18.2792V16.9142C4.58691 17.3566 5.38052 17.6148 6.23288 17.6148C7.0856 17.6148 7.87922 17.3566 8.54074 16.9142V26.9194C8.49659 26.9381 8.45354 26.9583 8.41012 26.9784C7.71429 26.718 6.98307 26.5843 6.23288 26.5843C5.41774 26.5843 4.63945 26.7436 3.92538 27.0304V25.2168C3.92538 24.6993 3.50723 24.2792 2.99129 24.2792C2.47535 24.2792 2.05719 24.6993 2.05719 25.2168V28.1998C0.794708 29.3457 0 31.0015 0 32.8404V47.0624C0 47.5799 0.418152 48 0.934093 48H43.5287C44.0443 48 44.4628 47.5799 44.4628 47.0624V31.423C46.3383 31.2952 47.8255 29.7237 47.8255 27.809V20.1635C47.8255 17.5628 45.9807 15.3863 43.5353 14.8838ZM40.1156 14.7743C38.9028 14.7472 37.9242 13.7492 37.9242 12.5252V11.3602H42.4078V12.5252C42.4078 13.7492 41.4292 14.7472 40.2163 14.7743H40.1156ZM42.9486 9.48511H41.1001V7.42357C42.0188 7.74403 42.7263 8.52228 42.9486 9.48511ZM39.2319 7.42357V9.48511H37.3834C37.6056 8.52228 38.3131 7.74403 39.2319 7.42357ZM38.578 28.4595C39.8657 28.4595 40.9133 29.5109 40.9133 30.8034C40.9133 32.0958 39.8657 33.1473 38.578 33.1473H10.1816C8.89395 33.1473 7.84638 32.0958 7.84638 30.8034C7.84638 29.5109 8.89395 28.4595 10.1816 28.4595H38.578ZM37.7373 35.0224H38.578C38.8006 35.0224 39.0188 35.0045 39.2319 34.9711V46.1249H37.7373V35.0224ZM6.02782 31.4505C6.16063 32.3148 6.55689 33.0927 7.13012 33.7003C6.89149 33.9266 6.57295 34.0577 6.23288 34.0577C5.51188 34.0577 4.92515 33.4692 4.92515 32.7452C4.92515 32.0918 5.40387 31.5498 6.02782 31.4505ZM28.0228 21.709H32.8801V26.5843H28.0228V21.709ZM15.6398 21.709H20.4971V26.5843H15.6398V21.709ZM13.7169 5.87219C14.1103 6.26663 14.5821 6.55303 15.0973 6.71747L10.0678 11.7657C9.63794 10.7684 8.83374 9.97074 7.83324 9.5525L12.8781 4.48928C13.0386 4.99506 13.3178 5.47116 13.7169 5.87219ZM24.3178 9.85575C24.3178 10.1275 24.212 10.3831 24.0204 10.5754C23.6252 10.9724 22.9816 10.9724 22.5864 10.5754L18.2407 6.21389L18.5655 5.88831C18.9577 5.49424 19.2427 5.02143 19.4076 4.50576L24.0204 9.13609C24.212 9.32837 24.3178 9.584 24.3178 9.85575ZM17.2442 2.33471C17.5409 2.6321 17.704 3.02763 17.704 3.44844C17.704 3.83189 17.5671 4.19336 17.319 4.47976C17.2938 4.50027 17.269 4.52224 17.2453 4.54605C16.6367 5.15693 15.6464 5.15693 15.0378 4.54605C14.4295 3.93517 14.4295 2.94157 15.0378 2.33069C15.052 2.3164 15.0648 2.30139 15.0779 2.28637C15.6931 1.72273 16.6495 1.73738 17.2442 2.33471ZM6.23288 15.7397C4.96054 15.7397 3.92538 14.7007 3.92538 13.4236C3.92538 12.1462 4.96054 11.1072 6.23288 11.1072C7.50558 11.1072 8.54074 12.1462 8.54074 13.4236C8.54074 14.7007 7.50558 15.7397 6.23288 15.7397ZM1.86819 32.8404C1.86819 30.4247 3.82613 28.4595 6.23288 28.4595C6.38139 28.4595 6.52843 28.4671 6.67402 28.4818C6.45655 28.8118 6.2836 29.1736 6.16501 29.5593C4.44497 29.5959 3.05696 31.0103 3.05696 32.7452C3.05696 34.5031 4.48182 35.9329 6.23288 35.9329C7.20565 35.9329 8.10544 35.4919 8.70129 34.7514C9.16214 34.9261 9.66093 35.0224 10.1816 35.0224H10.5979V46.1245H1.86819V32.8404ZM35.8692 46.1249H12.4661V39.5227H23.399C23.915 39.5227 24.3331 39.1026 24.3331 38.5852C24.3331 38.0673 23.915 37.6476 23.399 37.6476H12.4661V35.0224H35.8692V46.1249ZM41.1001 46.1249V34.1764C41.7996 33.6479 42.3301 32.9063 42.5946 32.0482V46.1249H41.1001ZM45.9574 27.809C45.9574 28.6887 45.306 29.4168 44.4628 29.538V21.5665C44.4628 21.0487 44.0447 20.629 43.5287 20.629C43.0128 20.629 42.5946 21.0487 42.5946 21.5665V27.3871V27.3889V29.5585C42.0641 27.838 40.4641 26.5843 38.578 26.5843H37.7373V21.5665C37.7373 21.0487 37.3192 20.629 36.8033 20.629C36.2873 20.629 35.8692 21.0487 35.8692 21.5665V26.5843H34.7482V20.7714C34.7482 20.4667 34.6027 20.1964 34.3783 20.0254C34.4509 18.1514 35.9914 16.6494 37.876 16.6494H40.1156C40.1324 16.6494 40.1492 16.6505 40.166 16.6505C40.1831 16.6505 40.1996 16.6498 40.2163 16.6494H42.4563C44.3869 16.6494 45.9574 18.2257 45.9574 20.1635V27.809Z" fill="url(#paint0_linear)"/>
<path d="M2.99086 22.9672C3.23642 22.9672 3.47761 22.8668 3.65129 22.6921C3.82607 22.5178 3.92495 22.2761 3.92495 22.0296C3.92495 21.7828 3.82607 21.541 3.65129 21.3667C3.47761 21.192 3.23751 21.092 2.99086 21.092C2.74529 21.092 2.50411 21.192 2.33042 21.3667C2.15674 21.541 2.05676 21.7828 2.05676 22.0296C2.05676 22.2761 2.15674 22.5178 2.33042 22.6921C2.50411 22.8668 2.74529 22.9672 2.99086 22.9672Z" fill="url(#paint1_linear)"/>
<path d="M6.23329 12.4858C5.98663 12.4858 5.74654 12.5862 5.57285 12.7605C5.39917 12.9352 5.29919 13.1769 5.29919 13.4234C5.29919 13.671 5.39917 13.912 5.57285 14.0863C5.74654 14.2606 5.98663 14.361 6.23329 14.361C6.47885 14.361 6.71967 14.2606 6.89372 14.0863C7.0674 13.912 7.16738 13.6702 7.16738 13.4234C7.16738 13.1769 7.0674 12.9352 6.89372 12.7605C6.71967 12.5862 6.47885 12.4858 6.23329 12.4858Z" fill="url(#paint2_linear)"/>
<path d="M15.4807 4.10094C15.6551 4.27527 15.8952 4.37562 16.1411 4.37562C16.3874 4.37562 16.6275 4.27527 16.8023 4.10094C16.976 3.92661 17.0759 3.6849 17.0759 3.43805C17.0759 3.19158 16.976 2.94986 16.8023 2.77517C16.6275 2.6012 16.3874 2.50049 16.1411 2.50049C15.8952 2.50049 15.6551 2.60084 15.4807 2.77517C15.307 2.94986 15.2078 3.19158 15.2078 3.43805C15.2078 3.6849 15.307 3.92661 15.4807 4.10094Z" fill="url(#paint3_linear)"/>
<path d="M18.8685 29.8655C18.623 29.8655 18.3818 29.9658 18.2081 30.1402C18.0344 30.3149 17.9344 30.5566 17.9344 30.803C17.9344 31.0495 18.0344 31.2916 18.2081 31.4659C18.3818 31.641 18.623 31.7406 18.8685 31.7406C19.1141 31.7406 19.3553 31.641 19.529 31.4659C19.7027 31.2916 19.8026 31.0495 19.8026 30.803C19.8026 30.5566 19.7027 30.3145 19.529 30.1402C19.3553 29.9658 19.1141 29.8655 18.8685 29.8655Z" fill="url(#paint4_linear)"/>
<path d="M12.8905 29.8655C12.6449 29.8655 12.4038 29.9658 12.2301 30.1402C12.0564 30.3149 11.9564 30.5566 11.9564 30.803C11.9564 31.0506 12.0564 31.2916 12.2301 31.4659C12.4038 31.6403 12.6439 31.7406 12.8905 31.7406C13.1361 31.7406 13.3773 31.6403 13.5509 31.4659C13.7246 31.2916 13.8246 31.0506 13.8246 30.803C13.8246 30.5566 13.7246 30.3145 13.5509 30.1402C13.3773 29.9658 13.1361 29.8655 12.8905 29.8655Z" fill="url(#paint5_linear)"/>
<path d="M36.8032 31.7406C37.0488 31.7406 37.29 31.641 37.4637 31.4659C37.6373 31.2916 37.7373 31.0506 37.7373 30.803C37.7373 30.5566 37.6373 30.3145 37.4637 30.1402C37.29 29.9658 37.0488 29.8655 36.8032 29.8655C36.5577 29.8655 36.3165 29.9658 36.1428 30.1402C35.9691 30.3149 35.8691 30.5566 35.8691 30.803C35.8691 31.0506 35.9691 31.2916 36.1428 31.4659C36.3165 31.6414 36.5577 31.7406 36.8032 31.7406Z" fill="url(#paint6_linear)"/>
<path d="M24.8468 29.8655C24.6012 29.8655 24.3601 29.9658 24.1864 30.1402C24.0127 30.3149 23.9127 30.5566 23.9127 30.803C23.9127 31.0495 24.0127 31.2916 24.1864 31.4659C24.3601 31.641 24.6012 31.7406 24.8468 31.7406C25.0924 31.7406 25.3336 31.641 25.5072 31.4659C25.6809 31.2916 25.7809 31.0506 25.7809 30.803C25.7809 30.5566 25.6809 30.3145 25.5072 30.1402C25.3336 29.9658 25.0924 29.8655 24.8468 29.8655Z" fill="url(#paint7_linear)"/>
<path d="M30.825 29.8655C30.5794 29.8655 30.3382 29.9658 30.1645 30.1402C29.9908 30.3149 29.8909 30.5566 29.8909 30.803C29.8909 31.0495 29.9908 31.2916 30.1645 31.4659C30.3382 31.641 30.5794 31.7406 30.825 31.7406C31.0705 31.7406 31.3117 31.641 31.4854 31.4659C31.6591 31.2916 31.7591 31.0495 31.7591 30.803C31.7591 30.5566 31.6591 30.3145 31.4854 30.1402C31.3117 29.9658 31.0705 29.8655 30.825 29.8655Z" fill="url(#paint8_linear)"/>
<path d="M26.9859 39.5223C27.2318 39.5223 27.4726 39.4227 27.6463 39.2477C27.82 39.0733 27.9199 38.8324 27.9199 38.5848C27.9199 38.3383 27.82 38.0962 27.6463 37.9219C27.4726 37.7476 27.2325 37.6472 26.9859 37.6472C26.7403 37.6472 26.4991 37.7476 26.3254 37.9219C26.1517 38.0962 26.0518 38.3383 26.0518 38.5848C26.0518 38.8324 26.1517 39.0733 26.3254 39.2477C26.4991 39.4231 26.7403 39.5223 26.9859 39.5223Z" fill="url(#paint9_linear)"/>
<defs>
<linearGradient id="paint0_linear" x1="23.9128" y1="0" x2="23.9128" y2="48" gradientUnits="userSpaceOnUse">
<stop stop-color="#BD733C"/>
<stop offset="1" stop-color="#8E6B5E"/>
</linearGradient>
<linearGradient id="paint1_linear" x1="2.99086" y1="21.092" x2="2.99086" y2="22.9672" gradientUnits="userSpaceOnUse">
<stop stop-color="#BD733C"/>
<stop offset="1" stop-color="#8E6B5E"/>
</linearGradient>
<linearGradient id="paint2_linear" x1="6.23329" y1="12.4858" x2="6.23329" y2="14.361" gradientUnits="userSpaceOnUse">
<stop stop-color="#BD733C"/>
<stop offset="1" stop-color="#8E6B5E"/>
</linearGradient>
<linearGradient id="paint3_linear" x1="16.1419" y1="2.50049" x2="16.1419" y2="4.37562" gradientUnits="userSpaceOnUse">
<stop stop-color="#BD733C"/>
<stop offset="1" stop-color="#8E6B5E"/>
</linearGradient>
<linearGradient id="paint4_linear" x1="18.8685" y1="29.8655" x2="18.8685" y2="31.7406" gradientUnits="userSpaceOnUse">
<stop stop-color="#BD733C"/>
<stop offset="1" stop-color="#8E6B5E"/>
</linearGradient>
<linearGradient id="paint5_linear" x1="12.8905" y1="29.8655" x2="12.8905" y2="31.7406" gradientUnits="userSpaceOnUse">
<stop stop-color="#BD733C"/>
<stop offset="1" stop-color="#8E6B5E"/>
</linearGradient>
<linearGradient id="paint6_linear" x1="36.8032" y1="29.8655" x2="36.8032" y2="31.7406" gradientUnits="userSpaceOnUse">
<stop stop-color="#BD733C"/>
<stop offset="1" stop-color="#8E6B5E"/>
</linearGradient>
<linearGradient id="paint7_linear" x1="24.8468" y1="29.8655" x2="24.8468" y2="31.7406" gradientUnits="userSpaceOnUse">
<stop stop-color="#BD733C"/>
<stop offset="1" stop-color="#8E6B5E"/>
</linearGradient>
<linearGradient id="paint8_linear" x1="30.825" y1="29.8655" x2="30.825" y2="31.7406" gradientUnits="userSpaceOnUse">
<stop stop-color="#BD733C"/>
<stop offset="1" stop-color="#8E6B5E"/>
</linearGradient>
<linearGradient id="paint9_linear" x1="26.9859" y1="37.6472" x2="26.9859" y2="39.5223" gradientUnits="userSpaceOnUse">
<stop stop-color="#BD733C"/>
<stop offset="1" stop-color="#8E6B5E"/>
</linearGradient>
</defs>
</svg>
