<svg width="63" height="40" viewBox="0 0 63 40" fill="none" xmlns="http://www.w3.org/2000/svg">
<path d="M58.5902 16.9574L56.9587 10.4073C57.4047 10.3122 57.7394 9.915 57.7394 9.43913V8.38304C57.7394 6.09004 55.8808 4.22462 53.5964 4.22462H46.1653V2.04623C46.1653 0.917891 45.2508 0 44.1267 0H6.24738C5.12322 0 4.20873 0.917891 4.20873 2.04623V20.0002C4.20873 20.5469 4.65034 20.9903 5.1952 20.9903C5.73993 20.9903 6.18167 20.5471 6.18167 20.0002V2.04623C6.18167 2.0098 6.21108 1.98028 6.24738 1.98028H44.1265C44.1628 1.98028 44.1922 2.0098 44.1922 2.04623V20.0004C44.1922 20.5472 44.6339 20.9906 45.1787 20.9906C45.7234 20.9906 46.1652 20.5473 46.1652 20.0004V18.878H57.8017C57.8027 18.878 57.8034 18.8783 57.8043 18.8783C57.8053 18.8783 57.8061 18.8781 57.807 18.8781C59.2389 18.8791 60.4547 19.8225 60.8723 21.1224H57.805C57.2603 21.1224 56.8185 21.5656 56.8185 22.1125V24.2247C56.8185 25.9354 58.205 27.327 59.9094 27.327H61.0274V31.6834H58.4481C57.6008 29.2278 55.275 27.4589 52.544 27.4589C49.8129 27.4589 47.4871 29.2278 46.6399 31.6834H46.1649V24.2246C46.1649 23.6778 45.7233 23.2344 45.1785 23.2344C44.6337 23.2344 44.192 23.6777 44.192 24.2246V31.6832H23.7257C22.8784 29.2275 20.5527 27.4587 17.8216 27.4587C15.0906 27.4587 12.7647 29.2275 11.9175 31.6832H6.24738C6.21108 31.6832 6.18167 31.6536 6.18167 31.6172V29.4389H10.4562C11.001 29.4389 11.4427 28.9957 11.4427 28.4488C11.4427 27.9019 11.0011 27.4587 10.4562 27.4587H0.986474C0.441742 27.4587 0 27.9019 0 28.4488C0 28.9957 0.441619 29.4389 0.986474 29.4389H4.20885V31.6172C4.20885 32.7456 5.12334 33.6634 6.2475 33.6634H11.576C11.5757 33.6854 11.5742 33.7073 11.5742 33.7294C11.5742 37.187 14.3769 40 17.8216 40C21.2663 40 24.069 37.187 24.069 33.7294C24.069 33.7072 24.0675 33.6854 24.0673 33.6634H46.2983C46.2981 33.6854 46.2966 33.7073 46.2966 33.7294C46.2966 37.187 49.0993 40 52.544 40C55.9887 40 58.7914 37.187 58.7914 33.7294C58.7914 33.7072 58.7899 33.6854 58.7896 33.6634H62.0139C62.5586 33.6634 63.0003 33.2202 63.0003 32.6733V22.1123C63.0005 19.5048 61.0837 17.3384 58.5902 16.9574ZM46.1653 6.20478H53.5964C54.7931 6.20478 55.7666 7.18195 55.7666 8.38304V8.44899H46.1653V6.20478ZM46.1653 16.8979V10.4292H54.9306L56.5418 16.8979H46.1653ZM17.8216 38.0201C15.4646 38.0201 13.5471 36.0955 13.5471 33.7296C13.5471 31.3638 15.4646 29.4392 17.8216 29.4392C20.1786 29.4392 22.0962 31.3638 22.0962 33.7296C22.0962 36.0955 20.1786 38.0201 17.8216 38.0201ZM52.5442 38.0201C50.1873 38.0201 48.2697 36.0955 48.2697 33.7296C48.2697 31.3638 50.1873 29.4392 52.5442 29.4392C54.9012 29.4392 56.8188 31.3638 56.8188 33.7296C56.8188 36.0955 54.9012 38.0201 52.5442 38.0201ZM61.0276 25.3467H59.9096C59.2932 25.3467 58.7916 24.8433 58.7916 24.2246V23.1024H61.0275V25.3467H61.0276Z" fill="url(#paint0_linear)"/>
<path d="M17.8216 31.6833C16.6975 31.6833 15.783 32.6012 15.783 33.7296C15.783 34.8579 16.6975 35.7758 17.8216 35.7758C18.9458 35.7758 19.8603 34.8579 19.8603 33.7296C19.8603 32.6012 18.9458 31.6833 17.8216 31.6833Z" fill="url(#paint1_linear)"/>
<path d="M52.5443 31.6833C51.4201 31.6833 50.5056 32.6012 50.5056 33.7296C50.5056 34.8579 51.4201 35.7758 52.5443 35.7758C53.6684 35.7758 54.5829 34.8579 54.5829 33.7296C54.5829 32.6012 53.6684 31.6833 52.5443 31.6833Z" fill="url(#paint2_linear)"/>
<path d="M40.9699 27.459H26.2392C25.6944 27.459 25.2527 27.9022 25.2527 28.4491C25.2527 28.996 25.6943 29.4393 26.2392 29.4393H40.9699C41.5147 29.4393 41.9564 28.996 41.9564 28.4491C41.9564 27.9022 41.5148 27.459 40.9699 27.459Z" fill="url(#paint3_linear)"/>
<path d="M15.7171 23.2346H3.09072C2.54599 23.2346 2.10425 23.6779 2.10425 24.2248C2.10425 24.7716 2.54587 25.2149 3.09072 25.2149H15.7171C16.2619 25.2149 16.7036 24.7716 16.7036 24.2248C16.7036 23.6779 16.2619 23.2346 15.7171 23.2346Z" fill="url(#paint4_linear)"/>
<path d="M34.3022 9.79504C33.917 9.40847 33.2923 9.40847 32.9072 9.79516L24.1349 18.6L19.5714 14.0195C19.1861 13.6328 18.5615 13.6328 18.1764 14.0195C17.7911 14.4062 17.7911 15.033 18.1764 15.4197L23.4374 20.7003C23.63 20.8937 23.8825 20.9903 24.1349 20.9903C24.3872 20.9903 24.6399 20.8937 24.8323 20.7003L34.3021 11.1953C34.6873 10.8085 34.6873 10.1817 34.3022 9.79504Z" fill="url(#paint5_linear)"/>
<defs>
<linearGradient id="paint0_linear" x1="31.5002" y1="0" x2="31.5002" y2="40" gradientUnits="userSpaceOnUse">
<stop stop-color="#BD733C"/>
<stop offset="1" stop-color="#8E6B5E"/>
</linearGradient>
<linearGradient id="paint1_linear" x1="17.8216" y1="31.6833" x2="17.8216" y2="35.7758" gradientUnits="userSpaceOnUse">
<stop stop-color="#BD733C"/>
<stop offset="1" stop-color="#8E6B5E"/>
</linearGradient>
<linearGradient id="paint2_linear" x1="52.5443" y1="31.6833" x2="52.5443" y2="35.7758" gradientUnits="userSpaceOnUse">
<stop stop-color="#BD733C"/>
<stop offset="1" stop-color="#8E6B5E"/>
</linearGradient>
<linearGradient id="paint3_linear" x1="33.6046" y1="27.459" x2="33.6046" y2="29.4393" gradientUnits="userSpaceOnUse">
<stop stop-color="#BD733C"/>
<stop offset="1" stop-color="#8E6B5E"/>
</linearGradient>
<linearGradient id="paint4_linear" x1="9.40393" y1="23.2346" x2="9.40393" y2="25.2149" gradientUnits="userSpaceOnUse">
<stop stop-color="#BD733C"/>
<stop offset="1" stop-color="#8E6B5E"/>
</linearGradient>
<linearGradient id="paint5_linear" x1="26.2392" y1="9.50513" x2="26.2392" y2="20.9903" gradientUnits="userSpaceOnUse">
<stop stop-color="#BD733C"/>
<stop offset="1" stop-color="#8E6B5E"/>
</linearGradient>
</defs>
</svg>
