<svg width="31" height="40" viewBox="0 0 31 40" fill="none" xmlns="http://www.w3.org/2000/svg">
<path d="M2.80669 25.6212C4.55282 24.222 5.92756 23.5703 7.13327 23.5703C8.59346 23.5703 9.54043 24.5286 10.5427 25.5427L10.8535 25.8557C10.9273 25.9292 11.0361 25.965 11.186 25.965C11.5992 25.965 12.2523 25.6897 13.0246 25.19C14.1287 24.4738 15.5192 23.2831 17.1574 21.6507C19.2933 19.5214 20.6584 17.8302 21.2146 16.6239C21.5444 15.9087 21.513 15.5054 21.3748 15.3676L21.0624 15.0602C19.2989 13.3276 17.6332 11.6911 21.1368 7.34505C22.3263 5.87283 23.4994 5.13258 24.7226 5.08212C26.4914 5.00465 27.8578 6.43348 28.9482 7.57586L28.9626 7.59096C29.1433 7.77985 29.314 7.95823 29.4835 8.12717C30.7734 9.41338 30.7913 12.1671 29.5313 15.4931C28.1744 19.0811 25.4976 22.9809 21.994 26.4742C18.4903 29.9677 14.5797 32.6366 10.9825 33.9894C9.35874 34.5998 7.83123 34.9225 6.56509 34.9225C5.26598 34.9225 4.23826 34.583 3.59294 33.9407C3.45187 33.7999 3.30274 33.6585 3.14491 33.5087L3.0434 33.4123C1.83434 32.268 0.463913 30.9709 0.536905 29.1964C0.58766 27.9739 1.33009 26.8044 2.80669 25.6212ZM22.1149 13.997L22.4315 14.3097C23.1714 15.0479 23.1711 16.1378 22.4308 17.5491C21.726 18.8925 20.3471 20.5788 18.2151 22.7045C16.5037 24.4099 15.0318 25.6665 13.8401 26.4392C12.7979 27.1151 11.8976 27.4578 11.1643 27.4578C10.6192 27.4578 10.1585 27.2731 9.79476 26.9085L9.47362 26.5854C8.60759 25.7114 7.98197 25.0798 7.0813 25.0798C6.25499 25.0798 5.19475 25.6209 3.74439 26.7827C2.63943 27.6673 2.0632 28.4993 2.03164 29.2556C1.98686 30.3518 3.09415 31.401 4.07399 32.3296C4.2724 32.5175 4.46575 32.7013 4.65084 32.8849C5.00901 33.2424 5.66457 33.4314 6.54655 33.4314C7.64766 33.4314 8.99889 33.1419 10.4543 32.5942C13.858 31.3137 17.5805 28.766 20.936 25.4204C24.2923 22.0739 26.8478 18.3617 28.1319 14.9675C29.1306 12.3268 29.2485 10.0018 28.4253 9.18192C28.2634 9.02051 28.102 8.85197 27.9312 8.67359L27.8623 8.60167C26.9537 7.64924 25.9239 6.56975 24.8513 6.56975C24.8297 6.56975 24.8064 6.57066 24.7849 6.57152C24.0266 6.60379 23.1916 7.17813 22.3032 8.27838C21.0292 9.85899 20.5061 10.9506 20.6074 11.8178C20.6998 12.6081 21.324 13.2208 22.1149 13.997Z" fill="#8E6B5E"/>
<path d="M7.08242 17.2514C7.00486 17.4357 6.85959 17.5787 6.67283 17.6544C6.58236 17.6908 6.48789 17.7092 6.39201 17.7092C6.09077 17.7092 5.81233 17.5226 5.69901 17.2446C4.88202 15.2345 5.34788 12.9449 6.88583 11.4115C7.88882 10.4108 9.28509 9.83691 10.7167 9.83691C11.4884 9.83691 12.2336 9.99671 12.9309 10.3115C13.1129 10.3929 13.2521 10.5401 13.3227 10.7261C13.3936 10.9128 13.3871 11.116 13.3048 11.2975C13.185 11.564 12.9171 11.7363 12.6224 11.7363C12.5156 11.7363 12.4121 11.7139 12.3156 11.6703C11.8109 11.4442 11.2723 11.3296 10.7148 11.3296C9.67755 11.3296 8.66757 11.7435 7.94383 12.4651C6.83112 13.5754 6.49397 15.2314 7.08439 16.6826C7.16022 16.8662 7.15951 17.0681 7.08242 17.2514Z" fill="#8E6B5E"/>
<path d="M14.5865 7.40228C14.4815 7.40228 14.3792 7.38092 14.2795 7.33754C13.16 6.83294 11.9643 6.57703 10.7258 6.57703C8.42451 6.57703 6.18142 7.49764 4.57155 9.10274C2.10157 11.5655 1.35378 15.243 2.66601 18.4704C2.74199 18.6544 2.74128 18.8566 2.66403 19.0399C2.58648 19.2241 2.44111 19.3668 2.2543 19.4422C2.16378 19.4785 2.06931 19.497 1.97357 19.497C1.66666 19.497 1.39455 19.314 1.28063 19.0315C-0.259895 15.2472 0.616665 10.9355 3.51365 8.04693C5.40156 6.16456 8.03129 5.08496 10.7286 5.08496C12.1805 5.08496 13.5826 5.38486 14.896 5.97638C15.2706 6.14537 15.4385 6.58824 15.2698 6.96481C15.1492 7.23057 14.881 7.40228 14.5865 7.40228Z" fill="#8E6B5E"/>
</svg>
