<svg width="21" height="22" viewBox="0 0 21 22" fill="none" xmlns="http://www.w3.org/2000/svg">
<path d="M12.6003 11.3648C12.3895 11.3648 12.2185 11.5288 12.2185 11.7315V16.8667H0.763666V2.93335H12.2185V8.06595C12.2185 8.2687 12.3895 8.43261 12.6003 8.43261C12.811 8.43261 12.9821 8.2687 12.9821 8.06595V1.61515C12.9821 0.724882 12.2276 0 11.2998 0H1.68193C0.754507 0 0 0.724882 0 1.61515V20.3844C0 21.2751 0.754507 22 1.68193 22H11.2997C12.2272 22 12.9817 21.2751 12.9817 20.3848V11.7315C12.9821 11.5288 12.8111 11.3648 12.6003 11.3648ZM1.68193 0.733346H11.2997C11.8061 0.733346 12.218 1.12897 12.218 1.61519V2.20004H0.763282V1.61515C0.763666 1.12897 1.17565 0.733346 1.68193 0.733346ZM11.2998 21.2667H1.68193C1.17561 21.2667 0.763628 20.871 0.763628 20.3848V17.6H12.2184V20.3848C12.2185 20.871 11.8065 21.2667 11.2998 21.2667Z" fill="#8E6B5E"/>
<path d="M6.49116 17.9668C5.64887 17.9668 4.96387 18.6246 4.96387 19.4335C4.96387 20.2423 5.64887 20.9001 6.49116 20.9001C7.33345 20.9001 8.01846 20.2423 8.01846 19.4335C8.01846 18.6246 7.33307 17.9668 6.49116 17.9668ZM6.49116 20.1668C6.07002 20.1668 5.7275 19.8379 5.7275 19.4335C5.7275 19.029 6.06998 18.7001 6.49116 18.7001C6.91235 18.7001 7.25483 19.029 7.25483 19.4335C7.25483 19.8379 6.91231 20.1668 6.49116 20.1668Z" fill="#8E6B5E"/>
<path d="M4.96385 1.83341H6.49114C6.70192 1.83341 6.87295 1.6695 6.87295 1.46675C6.87295 1.264 6.70189 1.1001 6.49114 1.1001H4.96385C4.75306 1.1001 4.58203 1.264 4.58203 1.46675C4.58203 1.6695 4.75271 1.83341 4.96385 1.83341Z" fill="#8E6B5E"/>
<path d="M7.63645 1.83341H8.01827C8.22905 1.83341 8.40008 1.6695 8.40008 1.46675C8.40008 1.264 8.22901 1.1001 8.01827 1.1001H7.63645C7.42567 1.1001 7.25464 1.264 7.25464 1.46675C7.25464 1.6695 7.42528 1.83341 7.63645 1.83341Z" fill="#8E6B5E"/>
<path d="M20.9711 10.0401C21.0096 9.95063 21.0096 9.84944 20.9711 9.75997C20.9516 9.71488 20.9233 9.67416 20.8882 9.64008L16.3067 5.24082C16.1574 5.09746 15.916 5.09746 15.7668 5.24082C15.6175 5.38418 15.6175 5.61594 15.7668 5.75929L19.6969 9.53338H6.10923C5.89845 9.53338 5.72742 9.69729 5.72742 9.90004C5.72742 10.1028 5.89848 10.2667 6.10923 10.2667H19.6969L15.7668 14.0408C15.6175 14.1841 15.6175 14.4159 15.7668 14.5593C15.8413 14.6308 15.939 14.6667 16.0367 14.6667C16.1345 14.6667 16.2322 14.6308 16.3067 14.5593L20.8882 10.1596C20.9233 10.1259 20.9516 10.0852 20.9711 10.0401Z" fill="#8E6B5E"/>
</svg>
