<svg width="9" height="6" viewBox="0 0 9 6" fill="none" xmlns="http://www.w3.org/2000/svg">
<path d="M4.36847 5.94195C4.45293 5.97859 4.54847 5.97859 4.63293 5.94195C4.67516 5.92327 4.71393 5.89669 4.74578 5.86364L8.89893 1.55305C9.03393 1.41224 9.03393 1.18522 8.89893 1.04512C8.76393 0.904311 8.54447 0.904311 8.40947 1.04512L4.84686 4.74289L4.5007 5.07121L0.591932 1.04584C0.456933 0.905029 0.237472 0.905029 0.102471 1.04584C0.034625 1.11553 0.000701893 1.20749 0.000701889 1.29945C0.000701885 1.39141 0.034625 1.48337 0.101779 1.55377L4.25493 5.86436C4.28747 5.89669 4.32555 5.92327 4.36847 5.94195Z" fill="#D08C5B"/>
</svg>
