<svg width="5" height="10" viewBox="0 0 5 10" fill="none" xmlns="http://www.w3.org/2000/svg">
<path d="M4.97357 5.13857C5.01 5.05362 5.01 4.95753 4.97357 4.87258C4.955 4.8301 4.92857 4.79111 4.89571 4.75908L0.61 0.581818C0.47 0.446035 0.244286 0.446035 0.105 0.581818C-0.035 0.717602 -0.035 0.938337 0.105 1.07412L3.78143 4.65741L4.10786 5.00558L0.105714 8.93703C-0.0342857 9.07281 -0.0342857 9.29355 0.105714 9.42933C0.175 9.49757 0.266429 9.53169 0.357857 9.53169C0.449286 9.53169 0.540714 9.49757 0.610714 9.43003L4.89643 5.25277C4.92857 5.22004 4.955 5.18175 4.97357 5.13857Z" fill="#8E6B5E"/>
</svg>
