<svg width="22" height="24" viewBox="0 0 22 24" fill="none" xmlns="http://www.w3.org/2000/svg">
<path d="M19.2863 2.18767C18.4022 1.44583 17.3652 0.997613 16.2518 0.711787C13.4544 -0.00685119 10.6188 -0.186068 7.75392 0.195742C6.30139 0.389303 4.89827 0.766331 3.60764 1.47771C2.09165 2.31305 1.04873 3.51639 0.587388 5.18619C0.258375 6.37642 0.0991866 7.58844 0.0366291 8.81586C-0.0554945 10.6266 0.00453906 12.4257 0.476334 14.1924C1.02223 16.2367 2.20956 17.7425 4.24349 18.544C4.46541 18.6315 4.67382 18.7516 4.89484 18.8419C5.09856 18.9251 5.16094 19.0576 5.15949 19.2742C5.14958 20.6879 5.15445 22.1018 5.15445 23.5789C5.6888 23.0726 6.05747 22.6998 6.32591 22.402C7.1269 21.5124 7.88498 20.7722 8.72022 19.9262C9.1437 19.4973 8.96577 19.5182 9.62253 19.5288C10.3954 19.5412 11.6094 19.5712 12.3776 19.512C13.8431 19.3994 15.2963 19.2161 16.7103 18.799C18.5061 18.2694 19.9447 17.3248 20.6747 15.5413C20.8685 15.0676 21.0543 14.5917 21.1769 14.0957C21.8782 11.2571 21.7843 8.41297 21.1984 5.57295C20.9258 4.25344 20.3514 3.08127 19.2863 2.18767ZM10.361 3.90865C10.3763 3.63522 10.5355 3.52985 10.7976 3.54207C13.0277 3.64673 14.7065 4.29772 15.9974 6.00506C16.7541 7.00563 17.1624 8.35631 17.2035 9.61118C17.2035 9.79748 17.2118 9.98431 17.2014 10.1701C17.1896 10.3776 17.0972 10.5361 16.8597 10.5386C16.6196 10.5411 16.5021 10.4134 16.4858 10.1742C16.4231 9.24938 16.2412 8.3494 15.8813 7.48891C15.1847 5.82301 13.8492 4.92533 12.1326 4.49199C11.6788 4.37741 11.2198 4.28302 10.7507 4.24565C10.5389 4.22883 10.3455 4.18473 10.361 3.90865ZM12.6107 6.2351C12.1573 6.07908 11.6981 5.95388 11.2214 5.88588C10.9905 5.85294 10.8259 5.73287 10.8685 5.46758C10.9085 5.21806 11.0747 5.11889 11.3186 5.14174C12.8748 5.28695 14.0906 5.8432 14.9278 7.16767C15.3192 7.78678 15.5493 8.66409 15.5148 9.32234C15.4903 9.7888 15.418 9.90905 15.1465 9.90178C14.7515 9.89116 14.8098 9.57186 14.7795 9.33722C14.733 8.9756 14.6529 8.62283 14.553 8.2736C14.2649 7.26436 13.621 6.58273 12.6107 6.2351ZM13.9282 8.81338C13.9132 8.94301 13.9121 9.03226 13.8914 9.11709C13.8496 9.28745 13.7434 9.39052 13.5545 9.39335C13.363 9.39637 13.2601 9.2848 13.2098 9.12294C13.1751 9.01119 13.1661 8.89201 13.1436 8.77654C13.0225 8.16044 12.6641 7.75703 12.0406 7.59251C11.9638 7.57232 11.8845 7.56152 11.8081 7.54062C11.6114 7.48714 11.3664 7.48289 11.3583 7.20025C11.3514 6.96614 11.5328 6.82676 11.86 6.80711C12.0823 6.79383 12.4264 6.90132 12.6258 6.99677C13.4448 7.38921 13.8274 7.9412 13.9282 8.81338ZM17.2046 15.3052C16.7723 16.2668 16.0326 16.9012 14.9981 17.1886C14.6232 17.2927 14.2594 17.2031 13.9168 17.0598C9.19815 15.0869 5.78813 11.8314 3.85732 7.13207C3.71797 6.79294 3.63684 6.43947 3.64964 6.11627C3.65216 4.90603 4.73295 3.78734 5.91758 3.72288C6.24515 3.70517 6.52855 3.81426 6.76472 4.03173C7.59761 4.79853 8.26736 5.687 8.75664 6.69908C9.02201 7.24824 8.91078 7.63519 8.43304 8.02851C8.3566 8.09138 8.27385 8.14698 8.19308 8.20489C7.55849 8.6609 7.41661 9.12665 7.72002 9.84529C8.21778 11.0237 9.02778 11.9486 10.1208 12.6332C10.5335 12.8918 10.955 13.1369 11.4304 13.2729C11.8656 13.3976 12.2152 13.2642 12.4948 12.9263C12.5263 12.8883 12.5553 12.8482 12.5845 12.8084C13.193 11.981 13.844 11.8376 14.7259 12.375C15.4822 12.836 16.1945 13.3618 16.8716 13.9296C17.3299 14.3135 17.4471 14.7658 17.2046 15.3052Z" fill="white"/>
</svg>
