<svg width="27" height="16" viewBox="0 0 27 16" fill="none" xmlns="http://www.w3.org/2000/svg">
<path fill-rule="evenodd" clip-rule="evenodd" d="M12.8156 15.7189H14.3811C14.3811 15.7189 14.8539 15.667 15.0957 15.4077C15.3179 15.1696 15.3109 14.7226 15.3109 14.7226C15.3109 14.7226 15.2803 12.6299 16.2552 12.3214C17.2165 12.0179 18.4508 14.3441 19.7589 15.2389C20.7482 15.9156 21.4998 15.7675 21.4998 15.7675L24.998 15.7187C24.998 15.7187 26.8278 15.6062 25.9602 14.1732C25.889 14.0559 25.4547 13.1129 23.3591 11.1751C21.1655 9.14711 21.4596 9.47501 24.1017 5.96696C25.7108 3.83048 26.3541 2.52637 26.1531 1.96772C25.9616 1.43551 24.7779 1.57594 24.7779 1.57594L20.8394 1.60043C20.8394 1.60043 20.5474 1.56086 20.3309 1.68978C20.1193 1.8161 19.9835 2.11075 19.9835 2.11075C19.9835 2.11075 19.3599 3.76383 18.5287 5.16993C16.7749 8.13652 16.0735 8.29366 15.7868 8.10928C15.1198 7.67971 15.2866 6.38469 15.2866 5.46426C15.2866 2.5888 15.7243 1.3901 14.4341 1.07989C14.006 0.976915 13.6907 0.909131 12.5957 0.89778C11.1904 0.883672 10.0011 0.902158 9.3275 1.23102C8.87953 1.44945 8.53362 1.93659 8.74442 1.96464C9.00471 1.99886 9.59414 2.12291 9.90668 2.54664C10.3104 3.09378 10.2962 4.32215 10.2962 4.32215C10.2962 4.32215 10.5282 7.70663 9.75464 8.12695C9.22381 8.41528 8.49553 7.82663 6.93185 5.13491C6.1308 3.75637 5.52591 2.23237 5.52591 2.23237C5.52591 2.23237 5.40935 1.94745 5.20132 1.79502C4.94901 1.61032 4.59642 1.55178 4.59642 1.55178L0.85359 1.5761C0.85359 1.5761 0.291831 1.59167 0.0855872 1.83524C-0.0980303 2.05172 0.0709368 2.49929 0.0709368 2.49929C0.0709368 2.49929 3.00084 9.32857 6.31881 12.7701C9.3612 15.926 12.8156 15.7189 12.8156 15.7189Z" fill="#C0987B"/>
</svg>
