<svg width="24" height="24" viewBox="0 0 24 24" fill="none" xmlns="http://www.w3.org/2000/svg">
<path fill-rule="evenodd" clip-rule="evenodd" d="M11.8281 0C5.52886 0 0.422033 5.0163 0.422033 11.2048C0.422033 13.3215 1.02003 15.3016 2.05863 16.9904L0 23.0017L6.31507 21.0158C7.94932 21.9032 9.82857 22.4095 11.8281 22.4095C18.1282 22.4095 23.2348 17.3925 23.2348 11.2048C23.2346 5.0163 18.1282 0 11.8281 0ZM11.8281 20.5322C9.89978 20.5322 8.10364 19.9639 6.60406 18.9899L2.95499 20.1373L4.14106 16.6735C3.00439 15.1355 2.33284 13.2461 2.33284 11.2046C2.33284 6.06114 6.59252 1.87664 11.8279 1.87664C17.0642 1.87664 21.3237 6.06114 21.3237 11.2046C21.3238 16.3479 17.0643 20.5322 11.8281 20.5322ZM17.1763 13.7506C16.8904 13.5967 15.4858 12.8523 15.2224 12.7471C14.959 12.642 14.767 12.5873 14.5617 12.8664C14.3565 13.145 13.7738 13.7687 13.5973 13.9534C13.4199 14.1381 13.2494 14.1553 12.9633 14.0012C12.6781 13.8479 11.7511 13.511 10.6763 12.4961C9.83975 11.7061 9.29133 10.7484 9.13196 10.456C8.97278 10.1633 9.13088 10.0142 9.28214 9.87729C9.41789 9.75368 9.58627 9.55357 9.73825 9.39206C9.88969 9.23055 9.94323 9.11332 10.0476 8.92595C10.1518 8.73859 10.1098 8.56982 10.0424 8.42408C9.97496 8.27868 9.44637 6.84955 9.22553 6.26816C9.00486 5.68677 8.75878 5.77319 8.58878 5.76664C8.41895 5.76097 8.22569 5.72945 8.03153 5.72254C7.83736 5.71528 7.51917 5.77532 7.24154 6.05158C6.96372 6.32784 6.18527 6.99194 6.13154 8.39964C6.07782 9.80645 7.06918 11.2049 7.20746 11.4008C7.34591 11.5972 9.10041 14.6476 12.0163 15.9021C14.9327 17.1563 14.948 16.774 15.4831 16.7458C16.0185 16.718 17.232 16.1169 17.5004 15.4585C17.7687 14.7999 17.7902 14.2272 17.722 14.1054C17.6531 13.9832 17.462 13.904 17.1763 13.7506Z" fill="#8E6B5E"/>
</svg>
